Ribes-Light.ufo
<glyph name="exclam" format="2">
  <advance width="240"/>
  <unicode hex="0021"/>
  <outline>
    <contour>
      <point x="108" y="188" type="line"/>
      <point x="132" y="188" type="line"/>
      <point x="142" y="750" type="line"/>
      <point x="98" y="750" type="line"/>
    </contour>
    <component base="period" xOffset="12"/>
  </outline>
</glyph>
<glyph name="numbersign" format="2">
  <advance width="636"/>
  <unicode hex="0023"/>
  <outline>
    <contour>
      <point x="86" y="0" type="line"/>
      <point x="120" y="0" type="line"/>
      <point x="284" y="700" type="line"/>
      <point x="248" y="700" type="line"/>
    </contour>
    <contour>
      <point x="358" y="0" type="line"/>
      <point x="392" y="0" type="line"/>
      <point x="548" y="700" type="line"/>
      <point x="512" y="700" type="line"/>
    </contour>
    <contour>
      <point x="108" y="449" type="line"/>
      <point x="568" y="449" type="line"/>
      <point x="580" y="505" type="line"/>
      <point x="122" y="505" type="line"/>
    </contour>
    <contour>
      <point x="52" y="191" type="line"/>
      <point x="524" y="191" type="line"/>
      <point x="536" y="245" type="line"/>
      <point x="64" y="245" type="line"/>
    </contour>
  </outline>
</glyph>
<glyph name="dollar" format="2">
  <advance width="592"/>
  <unicode hex="0024"/>
  <outline>
    <contour>
      <point x="279" y="-100" type="line"/>
      <point x="313" y="-100" type="line"/>
      <point x="313" y="780" type="line"/>
      <point x="279" y="780" type="line"/>
    </contour>
    <component base="S"/>
  </outline>
</glyph>
<glyph name="percent" format="2">
  <advance width="760"/>
  <unicode hex="0025"/>
  <outline>
    <contour>
      <point x="558" y="-4" type="curve" smooth="yes"/>
      <point x="648" y="-4"/>
      <point x="712" y="68"/>
      <point x="712" y="171" type="curve" smooth="yes"/>
      <point x="712" y="277"/>
      <point x="648" y="352"/>
      <point x="558" y="352" type="curve" smooth="yes"/>
      <point x="468" y="352"/>
      <point x="404" y="277"/>
      <point x="404" y="171" type="curve" smooth="yes"/>
      <point x="404" y="68"/>
      <point x="468" y="-4"/>
    </contour>
    <contour>
      <point x="194" y="348" type="curve" smooth="yes"/>
      <point x="284" y="348"/>
      <point x="348" y="420"/>
      <point x="348" y="523" type="curve" smooth="yes"/>
      <point x="348" y="629"/>
      <point x="284" y="704"/>
      <point x="194" y="704" type="curve" smooth="yes"/>
      <point x="104" y="704"/>
      <point x="40" y="629"/>
      <point x="40" y="523" type="curve" smooth="yes"/>
      <point x="40" y="420"/>
      <point x="104" y="348"/>
    </contour>
    <contour>
      <point x="194" y="396" type="curve" smooth="yes"/>
      <point x="119" y="396"/>
      <point x="70" y="446"/>
      <point x="70" y="525" type="curve" smooth="yes"/>
      <point x="70" y="604"/>
      <point x="119" y="654"/>
      <point x="194" y="654" type="curve" smooth="yes"/>
      <point x="269" y="654"/>
      <point x="318" y="604"/>
      <point x="318" y="525" type="curve" smooth="yes"/>
      <point x="318" y="446"/>
      <point x="269" y="396"/>
    </contour>
    <contour>
      <point x="558" y="44" type="curve" smooth="yes"/>
      <point x="483" y="44"/>
      <point x="434" y="94"/>
      <point x="434" y="173" type="curve" smooth="yes"/>
      <point x="434" y="252"/>
      <point x="483" y="302"/>
      <point x="558" y="302" type="curve" smooth="yes"/>
      <point x="633" y="302"/>
      <point x="682" y="252"/>
      <point x="682" y="173" type="curve" smooth="yes"/>
      <point x="682" y="94"/>
      <point x="633" y="44"/>
    </contour>
    <component base="fraction" xOffset="100"/>
  </outline>
</glyph>
<glyph name="ampersand" format="2">
  <advance width="596"/>
  <unicode hex="0026"/>
  <outline>
    <contour>
      <point x="288" y="-8" type="curve" smooth="yes"/>
      <point x="430" y="-8"/>
      <point x="530" y="72"/>
      <point x="530" y="186" type="curve" smooth="yes"/>
      <point x="530" y="265"/>
      <point x="480" y="328"/>
      <point x="402" y="348" type="curve"/>
      <point x="402" y="360" type="line"/>
      <point x="574" y="348" type="line"/>
      <point x="574" y="384" type="line"/>
      <point x="290" y="384" type="line" smooth="yes"/>
      <point x="177" y="384"/>
      <point x="104" y="436"/>
      <point x="104" y="518" type="curve" smooth="yes"/>
      <point x="104" y="597"/>
      <point x="171" y="648"/>
      <point x="274" y="648" type="curve" smooth="yes"/>
      <point x="390" y="648"/>
      <point x="468" y="580"/>
      <point x="480" y="472" type="curve"/>
      <point x="510" y="476" type="line"/>
      <point x="510" y="612"/>
      <point x="413" y="708"/>
      <point x="274" y="708" type="curve" smooth="yes"/>
      <point x="146" y="708"/>
      <point x="60" y="630"/>
      <point x="60" y="530" type="curve" smooth="yes"/>
      <point x="60" y="450"/>
      <point x="116" y="386"/>
      <point x="200" y="370" type="curve"/>
      <point x="200" y="358" type="line"/>
      <point x="107" y="341"/>
      <point x="48" y="268"/>
      <point x="48" y="184" type="curve" smooth="yes"/>
      <point x="48" y="72"/>
      <point x="147" y="-8"/>
    </contour>
    <contour>
      <point x="290" y="50" type="curve" smooth="yes"/>
      <point x="168" y="50"/>
      <point x="90" y="108"/>
      <point x="90" y="199" type="curve" smooth="yes"/>
      <point x="90" y="290"/>
      <point x="168" y="348"/>
      <point x="290" y="348" type="curve" smooth="yes"/>
      <point x="412" y="348"/>
      <point x="490" y="290"/>
      <point x="490" y="199" type="curve" smooth="yes"/>
      <point x="490" y="108"/>
      <point x="412" y="50"/>
    </contour>
  </outline>
</glyph>
<glyph name="quotesingle" format="2">
  <advance width="156"/>
  <unicode hex="0027"/>
  <outline>
    <contour>
      <point x="63" y="448" type="line"/>
      <point x="91" y="448" type="line"/>
      <point x="98" y="700" type="line"/>
      <point x="56" y="700" type="line"/>
    </contour>
  </outline>
</glyph>
<glyph name="parenleft" format="2">
  <advance width="342"/>
  <unicode hex="0028"/>
  <note>
spazio interno
</note>
  <outline>
    <contour>
      <point x="320" y="-212" type="curve"/>
      <point x="320" y="-166" type="line"/>
      <point x="179" y="-166"/>
      <point x="88" y="2"/>
      <point x="88" y="263" type="curve" smooth="yes"/>
      <point x="88" y="524"/>
      <point x="179" y="692"/>
      <point x="320" y="692" type="curve"/>
      <point x="320" y="740" type="line"/>
      <point x="161" y="740"/>
      <point x="48" y="543"/>
      <point x="48" y="264" type="curve" smooth="yes"/>
      <point x="48" y="-15"/>
      <point x="161" y="-212"/>
    </contour>
  </outline>
</glyph>
<glyph name="asterisk" format="2">
  <advance width="428"/>
  <unicode hex="002A"/>
  <outline>
    <contour>
      <point x="188" y="332" type="line"/>
      <point x="240" y="332" type="line"/>
      <point x="228" y="480" type="line"/>
      <point x="238" y="487" type="line"/>
      <point x="358" y="400" type="line"/>
      <point x="384" y="447" type="line"/>
      <point x="250" y="510" type="line"/>
      <point x="250" y="522" type="line"/>
      <point x="384" y="585" type="line"/>
      <point x="358" y="632" type="line"/>
      <point x="238" y="545" type="line"/>
      <point x="228" y="552" type="line"/>
      <point x="240" y="700" type="line"/>
      <point x="188" y="700" type="line"/>
      <point x="200" y="552" type="line"/>
      <point x="190" y="545" type="line"/>
      <point x="70" y="632" type="line"/>
      <point x="44" y="585" type="line"/>
      <point x="178" y="522" type="line"/>
      <point x="178" y="510" type="line"/>
      <point x="44" y="447" type="line"/>
      <point x="70" y="400" type="line"/>
      <point x="190" y="487" type="line"/>
      <point x="200" y="480" type="line"/>
    </contour>
  </outline>
</glyph>
<glyph name="plus" format="2">
  <advance width="564"/>
  <unicode hex="002B"/>
  <outline>
    <contour>
      <point x="263" y="40" type="line"/>
      <point x="301" y="40" type="line"/>
      <point x="301" y="520" type="line"/>
      <point x="263" y="520" type="line"/>
    </contour>
    <component base="minus"/>
  </outline>
</glyph>
<glyph name="comma" format="2">
  <advance width="200"/>
  <unicode hex="002C"/>
  <outline>
    <contour>
      <point x="72" y="-186" type="line"/>
      <point x="136" y="88" type="line"/>
      <point x="92" y="96" type="line"/>
      <point x="44" y="-180" type="line"/>
    </contour>
  </outline>
</glyph>
<glyph name="hyphen" format="2">
  <advance width="520"/>
  <unicode hex="002D"/>
  <outline>
    <contour>
      <point x="60" y="228" type="line"/>
      <point x="460" y="228" type="line"/>
      <point x="460" y="284" type="line"/>
      <point x="60" y="284" type="line"/>
    </contour>
  </outline>
</glyph>
<glyph name="period" format="2">
  <advance width="216"/>
  <unicode hex="002E"/>
  <outline>
    <contour>
      <point x="108" y="-4" type="curve" smooth="yes"/>
      <point x="138" y="-4"/>
      <point x="160" y="18"/>
      <point x="160" y="48" type="curve" smooth="yes"/>
      <point x="160" y="78"/>
      <point x="138" y="100"/>
      <point x="108" y="100" type="curve" smooth="yes"/>
      <point x="78" y="100"/>
      <point x="56" y="78"/>
      <point x="56" y="48" type="curve" smooth="yes"/>
      <point x="56" y="18"/>
      <point x="78" y="-4"/>
    </contour>
  </outline>
</glyph>
<glyph name="slash" format="2">
  <advance width="328"/>
  <unicode hex="002F"/>
  <outline>
    <contour>
      <point x="10" y="-120" type="line"/>
      <point x="48" y="-120" type="line"/>
      <point x="318" y="780" type="line"/>
      <point x="280" y="780" type="line"/>
    </contour>
  </outline>
</glyph>
<glyph name="zero" format="2">
  <advance width="648"/>
  <unicode hex="0030"/>
  <outline>
    <contour>
      <point x="324" y="-8" type="curve" smooth="yes"/>
      <point x="479" y="-8"/>
      <point x="588" y="140"/>
      <point x="588" y="350" type="curve" smooth="yes"/>
      <point x="588" y="560"/>
      <point x="479" y="708"/>
      <point x="324" y="708" type="curve" smooth="yes"/>
      <point x="169" y="708"/>
      <point x="60" y="560"/>
      <point x="60" y="350" type="curve" smooth="yes"/>
      <point x="60" y="140"/>
      <point x="169" y="-8"/>
    </contour>
    <contour>
      <point x="324" y="56" type="curve" smooth="yes"/>
      <point x="185" y="56"/>
      <point x="96" y="171"/>
      <point x="96" y="349" type="curve" smooth="yes"/>
      <point x="96" y="527"/>
      <point x="185" y="642"/>
      <point x="324" y="642" type="curve" smooth="yes"/>
      <point x="463" y="642"/>
      <point x="552" y="527"/>
      <point x="552" y="349" type="curve" smooth="yes"/>
      <point x="552" y="171"/>
      <point x="463" y="56"/>
    </contour>
  </outline>
</glyph>
<glyph name="one" format="2">
  <advance width="324"/>
  <unicode hex="0031"/>
  <outline>
    <contour>
      <point x="206" y="0" type="line"/>
      <point x="244" y="0" type="line"/>
      <point x="244" y="700" type="line"/>
      <point x="202" y="700" type="line"/>
      <point x="202" y="590"/>
      <point x="128" y="520"/>
      <point x="12" y="520" type="curve"/>
      <point x="12" y="452" type="line"/>
      <point x="94" y="454"/>
      <point x="165" y="495"/>
      <point x="194" y="556" type="curve"/>
      <point x="206" y="556" type="line"/>
    </contour>
  </outline>
</glyph>
<glyph name="two" format="2">
  <advance width="516"/>
  <unicode hex="0032"/>
  <outline>
    <contour>
      <point x="48" y="0" type="line"/>
      <point x="464" y="0" type="line"/>
      <point x="464" y="64" type="line"/>
      <point x="128" y="64" type="line"/>
      <point x="128" y="76" type="line"/>
      <point x="320" y="180"/>
      <point x="460" y="324"/>
      <point x="460" y="488" type="curve" smooth="yes"/>
      <point x="460" y="617"/>
      <point x="375" y="708"/>
      <point x="256" y="708" type="curve" smooth="yes"/>
      <point x="127" y="708"/>
      <point x="36" y="599"/>
      <point x="36" y="446" type="curve"/>
      <point x="68" y="444" type="line"/>
      <point x="72" y="564"/>
      <point x="144" y="642"/>
      <point x="252" y="642" type="curve" smooth="yes"/>
      <point x="352" y="642"/>
      <point x="416" y="575"/>
      <point x="416" y="472" type="curve" smooth="yes"/>
      <point x="416" y="312"/>
      <point x="260" y="172"/>
      <point x="48" y="60" type="curve"/>
    </contour>
  </outline>
</glyph>
<glyph name="three" format="2">
  <advance width="576"/>
  <unicode hex="0033"/>
  <outline>
    <contour>
      <point x="302" y="-8" type="curve" smooth="yes"/>
      <point x="434" y="-8"/>
      <point x="522" y="64"/>
      <point x="522" y="174" type="curve" smooth="yes"/>
      <point x="522" y="264"/>
      <point x="464" y="327"/>
      <point x="376" y="343" type="curve"/>
      <point x="376" y="355" type="line"/>
      <point x="458" y="372"/>
      <point x="510" y="437"/>
      <point x="510" y="520" type="curve" smooth="yes"/>
      <point x="510" y="630"/>
      <point x="422" y="708"/>
      <point x="300" y="708" type="curve" smooth="yes"/>
      <point x="164" y="708"/>
      <point x="70" y="612"/>
      <point x="70" y="480" type="curve"/>
      <point x="102" y="476" type="line"/>
      <point x="106" y="576"/>
      <point x="184" y="642"/>
      <point x="296" y="642" type="curve" smooth="yes"/>
      <point x="396" y="642"/>
      <point x="464" y="590"/>
      <point x="464" y="506" type="curve" smooth="yes"/>
      <point x="464" y="422"/>
      <point x="396" y="367"/>
      <point x="300" y="367" type="curve" smooth="yes"/>
      <point x="262" y="367" type="line"/>
      <point x="262" y="329" type="line"/>
      <point x="300" y="329" type="line" smooth="yes"/>
      <point x="408" y="329"/>
      <point x="476" y="276"/>
      <point x="476" y="192" type="curve" smooth="yes"/>
      <point x="476" y="108"/>
      <point x="405" y="56"/>
      <point x="298" y="56" type="curve" smooth="yes"/>
      <point x="182" y="56"/>
      <point x="100" y="120"/>
      <point x="88" y="212" type="curve"/>
      <point x="60" y="208" type="line"/>
      <point x="64" y="80"/>
      <point x="162" y="-8"/>
    </contour>
  </outline>
</glyph>
<glyph name="four" format="2">
  <advance width="508"/>
  <unicode hex="0034"/>
  <outline>
    <contour>
      <point x="362" y="0" type="line"/>
      <point x="398" y="0" type="line"/>
      <point x="398" y="700" type="line"/>
      <point x="352" y="700" type="line"/>
      <point x="18" y="208" type="line"/>
      <point x="18" y="142" type="line"/>
      <point x="482" y="142" type="line"/>
      <point x="482" y="204" type="line"/>
      <point x="68" y="204" type="line"/>
      <point x="68" y="216" type="line"/>
      <point x="350" y="632" type="line"/>
      <point x="362" y="632" type="line"/>
    </contour>
  </outline>
</glyph>
<glyph name="five" format="2">
  <advance width="556"/>
  <unicode hex="0035"/>
  <outline>
    <contour>
      <point x="286" y="-8" type="curve" smooth="yes"/>
      <point x="420" y="-8"/>
      <point x="514" y="86"/>
      <point x="514" y="220" type="curve" smooth="yes"/>
      <point x="514" y="432"/>
      <point x="286" y="496"/>
      <point x="134" y="380" type="curve"/>
      <point x="124" y="382" type="line"/>
      <point x="170" y="636" type="line"/>
      <point x="482" y="636" type="line"/>
      <point x="482" y="700" type="line"/>
      <point x="142" y="700" type="line"/>
      <point x="82" y="360" type="line"/>
      <point x="134" y="348" type="line"/>
      <point x="262" y="456"/>
      <point x="468" y="408"/>
      <point x="468" y="228" type="curve" smooth="yes"/>
      <point x="468" y="123"/>
      <point x="394" y="56"/>
      <point x="280" y="56" type="curve" smooth="yes"/>
      <point x="169" y="56"/>
      <point x="90" y="120"/>
      <point x="78" y="220" type="curve"/>
      <point x="50" y="216" type="line"/>
      <point x="54" y="85"/>
      <point x="152" y="-8"/>
    </contour>
  </outline>
</glyph>
<glyph name="six" format="2">
  <advance width="590"/>
  <unicode hex="0036"/>
  <outline>
    <contour>
      <point x="326" y="-8" type="curve" smooth="yes"/>
      <point x="454" y="-8"/>
      <point x="544" y="81"/>
      <point x="544" y="206" type="curve" smooth="yes"/>
      <point x="544" y="338"/>
      <point x="447" y="432"/>
      <point x="310" y="432" type="curve" smooth="yes"/>
      <point x="200" y="432"/>
      <point x="103" y="374"/>
      <point x="76" y="292" type="curve"/>
      <point x="88" y="268" type="line"/>
      <point x="115" y="346"/>
      <point x="198" y="396"/>
      <point x="300" y="396" type="curve" smooth="yes"/>
      <point x="423" y="396"/>
      <point x="502" y="327"/>
      <point x="502" y="220" type="curve" smooth="yes"/>
      <point x="502" y="119"/>
      <point x="434" y="54"/>
      <point x="328" y="54" type="curve" smooth="yes"/>
      <point x="186" y="54"/>
      <point x="94" y="169"/>
      <point x="94" y="348" type="curve" smooth="yes"/>
      <point x="94" y="532"/>
      <point x="180" y="644"/>
      <point x="312" y="644" type="curve" smooth="yes"/>
      <point x="408" y="644"/>
      <point x="476" y="584"/>
      <point x="488" y="484" type="curve"/>
      <point x="520" y="488" type="line"/>
      <point x="516" y="620"/>
      <point x="438" y="708"/>
      <point x="318" y="708" type="curve" smooth="yes"/>
      <point x="166" y="708"/>
      <point x="60" y="560"/>
      <point x="60" y="344" type="curve" smooth="yes"/>
      <point x="60" y="130"/>
      <point x="164" y="-8"/>
    </contour>
  </outline>
</glyph>
<glyph name="seven" format="2">
  <advance width="472"/>
  <unicode hex="0037"/>
  <outline>
    <contour>
      <point x="138" y="0" type="line"/>
      <point x="182" y="0" type="line"/>
      <point x="450" y="644" type="line"/>
      <point x="450" y="700" type="line"/>
      <point x="18" y="700" type="line"/>
      <point x="18" y="636" type="line"/>
      <point x="414" y="636" type="line"/>
      <point x="410" y="644" type="line"/>
    </contour>
  </outline>
</glyph>
<glyph name="eight" format="2">
  <advance width="592"/>
  <unicode hex="0038"/>
  <outline>
    <contour>
      <point x="296" y="-8" type="curve" smooth="yes"/>
      <point x="438" y="-8"/>
      <point x="538" y="68"/>
      <point x="538" y="176" type="curve" smooth="yes"/>
      <point x="538" y="260"/>
      <point x="479" y="325"/>
      <point x="386" y="342" type="curve"/>
      <point x="386" y="354" type="line"/>
      <point x="471" y="371"/>
      <point x="526" y="436"/>
      <point x="526" y="520" type="curve" smooth="yes"/>
      <point x="526" y="630"/>
      <point x="431" y="708"/>
      <point x="296" y="708" type="curve" smooth="yes"/>
      <point x="161" y="708"/>
      <point x="66" y="630"/>
      <point x="66" y="520" type="curve" smooth="yes"/>
      <point x="66" y="436"/>
      <point x="121" y="371"/>
      <point x="206" y="354" type="curve"/>
      <point x="206" y="342" type="line"/>
      <point x="113" y="325"/>
      <point x="54" y="260"/>
      <point x="54" y="176" type="curve" smooth="yes"/>
      <point x="54" y="68"/>
      <point x="154" y="-8"/>
    </contour>
    <contour>
      <point x="296" y="54" type="curve" smooth="yes"/>
      <point x="174" y="54"/>
      <point x="96" y="108"/>
      <point x="96" y="192" type="curve" smooth="yes"/>
      <point x="96" y="276"/>
      <point x="174" y="330"/>
      <point x="296" y="330" type="curve" smooth="yes"/>
      <point x="418" y="330"/>
      <point x="496" y="276"/>
      <point x="496" y="192" type="curve" smooth="yes"/>
      <point x="496" y="108"/>
      <point x="418" y="54"/>
    </contour>
    <contour>
      <point x="296" y="366" type="curve" smooth="yes"/>
      <point x="183" y="366"/>
      <point x="110" y="420"/>
      <point x="110" y="505" type="curve" smooth="yes"/>
      <point x="110" y="590"/>
      <point x="183" y="644"/>
      <point x="296" y="644" type="curve" smooth="yes"/>
      <point x="409" y="644"/>
      <point x="482" y="590"/>
      <point x="482" y="505" type="curve" smooth="yes"/>
      <point x="482" y="420"/>
      <point x="409" y="366"/>
    </contour>
  </outline>
</glyph>
<glyph name="nine" format="2">
  <advance width="590"/>
  <unicode hex="0039"/>
  <outline>
    <contour>
      <point x="280" y="-8" type="curve" smooth="yes"/>
      <point x="435" y="-8"/>
      <point x="530" y="136"/>
      <point x="530" y="360" type="curve" smooth="yes"/>
      <point x="530" y="572"/>
      <point x="432" y="708"/>
      <point x="280" y="708" type="curve" smooth="yes"/>
      <point x="151" y="708"/>
      <point x="60" y="617"/>
      <point x="60" y="488" type="curve" smooth="yes"/>
      <point x="60" y="354"/>
      <point x="159" y="260"/>
      <point x="298" y="260" type="curve" smooth="yes"/>
      <point x="405" y="260"/>
      <point x="497" y="311"/>
      <point x="520" y="388" type="curve"/>
      <point x="512" y="412" type="line"/>
      <point x="485" y="339"/>
      <point x="404" y="296"/>
      <point x="306" y="296" type="curve" smooth="yes"/>
      <point x="184" y="296"/>
      <point x="106" y="366"/>
      <point x="106" y="476" type="curve" smooth="yes"/>
      <point x="106" y="578"/>
      <point x="176" y="644"/>
      <point x="286" y="644" type="curve" smooth="yes"/>
      <point x="420" y="644"/>
      <point x="498" y="545"/>
      <point x="498" y="376" type="curve" smooth="yes"/>
      <point x="498" y="173"/>
      <point x="419" y="54"/>
      <point x="278" y="54" type="curve" smooth="yes"/>
      <point x="178" y="54"/>
      <point x="104" y="120"/>
      <point x="88" y="220" type="curve"/>
      <point x="60" y="218" type="line"/>
      <point x="68" y="86"/>
      <point x="157" y="-8"/>
    </contour>
  </outline>
</glyph>
<glyph name="less" format="2">
  <advance width="564"/>
  <unicode hex="003C"/>
  <outline>
    <contour>
      <point x="496" y="68" type="line"/>
      <point x="496" y="140" type="line"/>
      <point x="102" y="275" type="line"/>
      <point x="102" y="287" type="line"/>
      <point x="496" y="428" type="line"/>
      <point x="496" y="500" type="line"/>
      <point x="60" y="310" type="line"/>
      <point x="60" y="254" type="line"/>
    </contour>
  </outline>
</glyph>
<glyph name="equal" format="2">
  <advance width="564"/>
  <unicode hex="003D"/>
  <outline>
    <contour>
      <point x="72" y="160" type="line"/>
      <point x="492" y="160" type="line"/>
      <point x="492" y="214" type="line"/>
      <point x="72" y="214" type="line"/>
    </contour>
    <contour>
      <point x="72" y="338" type="line"/>
      <point x="492" y="338" type="line"/>
      <point x="492" y="392" type="line"/>
      <point x="72" y="392" type="line"/>
    </contour>
  </outline>
</glyph>
<glyph name="question" format="2">
  <advance width="488"/>
  <unicode hex="003F"/>
  <outline>
    <contour>
      <point x="212" y="188" type="curve"/>
      <point x="236" y="188" type="line"/>
      <point x="236" y="324"/>
      <point x="444" y="310"/>
      <point x="444" y="506" type="curve" smooth="yes"/>
      <point x="444" y="626"/>
      <point x="366" y="708"/>
      <point x="250" y="708" type="curve" smooth="yes"/>
      <point x="122" y="708"/>
      <point x="34" y="602"/>
      <point x="32" y="454" type="curve"/>
      <point x="64" y="452" type="line"/>
      <point x="70" y="569"/>
      <point x="140" y="644"/>
      <point x="244" y="644" type="curve" smooth="yes"/>
      <point x="339" y="644"/>
      <point x="400" y="583"/>
      <point x="400" y="488" type="curve" smooth="yes"/>
      <point x="400" y="320"/>
      <point x="212" y="348"/>
    </contour>
    <component base="period" xOffset="120"/>
  </outline>
</glyph>
<glyph name="at" format="2">
  <advance width="856"/>
  <unicode hex="0040"/>
  <outline>
    <contour>
      <point x="608" y="-96" type="curve"/>
      <point x="604" y="-40" type="line"/>
      <point x="286" y="-107"/>
      <point x="82" y="29"/>
      <point x="82" y="308" type="curve" smooth="yes"/>
      <point x="82" y="531"/>
      <point x="217" y="674"/>
      <point x="428" y="674" type="curve" smooth="yes"/>
      <point x="640" y="674"/>
      <point x="776" y="532"/>
      <point x="776" y="312" type="curve" smooth="yes"/>
      <point x="776" y="195"/>
      <point x="738" y="120"/>
      <point x="678" y="120" type="curve" smooth="yes"/>
      <point x="641" y="120"/>
      <point x="618" y="148"/>
      <point x="618" y="192" type="curve" smooth="yes"/>
      <point x="618" y="520" type="line"/>
      <point x="582" y="520" type="line"/>
      <point x="591" y="432" type="line"/>
      <point x="579" y="432" type="line"/>
      <point x="550" y="490"/>
      <point x="483" y="528"/>
      <point x="408" y="528" type="curve" smooth="yes"/>
      <point x="286" y="528"/>
      <point x="200" y="432"/>
      <point x="200" y="296" type="curve" smooth="yes"/>
      <point x="200" y="162"/>
      <point x="287" y="68"/>
      <point x="409" y="68" type="curve" smooth="yes"/>
      <point x="485" y="68"/>
      <point x="551" y="106"/>
      <point x="578" y="164" type="curve"/>
      <point x="590" y="164" type="line"/>
      <point x="590" y="108"/>
      <point x="626" y="68"/>
      <point x="676" y="68" type="curve" smooth="yes"/>
      <point x="753" y="68"/>
      <point x="808" y="166"/>
      <point x="808" y="304" type="curve" smooth="yes"/>
      <point x="808" y="541"/>
      <point x="650" y="708"/>
      <point x="427" y="708" type="curve" smooth="yes"/>
      <point x="205" y="708"/>
      <point x="48" y="539"/>
      <point x="48" y="300" type="curve" smooth="yes"/>
      <point x="48" y="6"/>
      <point x="280" y="-158"/>
    </contour>
    <contour>
      <point x="414" y="100" type="curve" smooth="yes"/>
      <point x="308" y="100"/>
      <point x="240" y="175"/>
      <point x="240" y="288" type="curve" smooth="yes"/>
      <point x="240" y="400"/>
      <point x="307" y="470"/>
      <point x="412" y="470" type="curve" smooth="yes"/>
      <point x="484" y="470"/>
      <point x="551" y="437"/>
      <point x="582" y="386" type="curve"/>
      <point x="582" y="232" type="line"/>
      <point x="566" y="152"/>
      <point x="500" y="100"/>
    </contour>
  </outline>
</glyph>
<glyph name="A" format="2">
  <advance width="616"/>
  <unicode hex="0041"/>
  <note>

</note>
  <anchor x="614" y="0" name="ogonek"/>
  <anchor x="318" y="700" name="top"/>
  <outline>
    <contour>
      <point x="4" y="0" type="line"/>
      <point x="66" y="0" type="line"/>
      <point x="317" y="632" type="line"/>
      <point x="329" y="632" type="line"/>
      <point x="572" y="0" type="line"/>
      <point x="614" y="0" type="line"/>
      <point x="342" y="700" type="line"/>
      <point x="286" y="700" type="line"/>
    </contour>
    <contour>
      <point x="116" y="181" type="line"/>
      <point x="524" y="181" type="line"/>
      <point x="524" y="219" type="line"/>
      <point x="116" y="219" type="line"/>
    </contour>
  </outline>
</glyph>
<glyph name="B" format="2">
  <advance width="624"/>
  <unicode hex="0042"/>
  <outline>
    <contour>
      <point x="80" y="0" type="line"/>
      <point x="400" y="0" type="line" smooth="yes"/>
      <point x="508" y="0"/>
      <point x="584" y="76"/>
      <point x="584" y="180" type="curve" smooth="yes"/>
      <point x="584" y="260"/>
      <point x="536" y="320"/>
      <point x="460" y="344" type="curve"/>
      <point x="460" y="356" type="line"/>
      <point x="525" y="377"/>
      <point x="568" y="436"/>
      <point x="568" y="516" type="curve" smooth="yes"/>
      <point x="568" y="624"/>
      <point x="490" y="700"/>
      <point x="380" y="700" type="curve" smooth="yes"/>
      <point x="80" y="700" type="line"/>
    </contour>
    <contour>
      <point x="120" y="62" type="line"/>
      <point x="120" y="636" type="line"/>
      <point x="378" y="636" type="line" smooth="yes"/>
      <point x="466" y="636"/>
      <point x="522" y="584"/>
      <point x="522" y="504" type="curve" smooth="yes"/>
      <point x="522" y="421"/>
      <point x="467" y="367"/>
      <point x="382" y="367" type="curve" smooth="yes"/>
      <point x="100" y="367" type="line"/>
      <point x="100" y="329" type="line"/>
      <point x="398" y="329" type="line" smooth="yes"/>
      <point x="484" y="329"/>
      <point x="540" y="276"/>
      <point x="540" y="194" type="curve" smooth="yes"/>
      <point x="540" y="114"/>
      <point x="485" y="62"/>
      <point x="400" y="62" type="curve" smooth="yes"/>
    </contour>
  </outline>
</glyph>
<glyph name="C" format="2">
  <advance width="692"/>
  <unicode hex="0043"/>
  <anchor x="356" y="0" name="bottom"/>
  <anchor x="348" y="700" name="top"/>
  <outline>
    <contour>
      <point x="356" y="-8" type="curve" smooth="yes"/>
      <point x="515" y="-8"/>
      <point x="636" y="99"/>
      <point x="648" y="248" type="curve"/>
      <point x="620" y="254" type="line"/>
      <point x="596" y="135"/>
      <point x="493" y="58"/>
      <point x="356" y="58" type="curve" smooth="yes"/>
      <point x="192" y="58"/>
      <point x="86" y="172"/>
      <point x="86" y="348" type="curve" smooth="yes"/>
      <point x="86" y="526"/>
      <point x="190" y="640"/>
      <point x="352" y="640" type="curve" smooth="yes"/>
      <point x="483" y="640"/>
      <point x="580" y="562"/>
      <point x="600" y="440" type="curve"/>
      <point x="628" y="444" type="line"/>
      <point x="624" y="600"/>
      <point x="509" y="708"/>
      <point x="352" y="708" type="curve" smooth="yes"/>
      <point x="174" y="708"/>
      <point x="48" y="559"/>
      <point x="48" y="348" type="curve" smooth="yes"/>
      <point x="48" y="139"/>
      <point x="176" y="-8"/>
    </contour>
  </outline>
</glyph>
<glyph name="D" format="2">
  <advance width="672"/>
  <unicode hex="0044"/>
  <anchor x="324" y="700" name="top"/>
  <outline>
    <contour>
      <point x="100" y="0" type="line"/>
      <point x="332" y="0" type="line" smooth="yes"/>
      <point x="506" y="0"/>
      <point x="624" y="144"/>
      <point x="624" y="352" type="curve" smooth="yes"/>
      <point x="624" y="560"/>
      <point x="506" y="700"/>
      <point x="332" y="700" type="curve" smooth="yes"/>
      <point x="100" y="700" type="line"/>
      <point x="100" y="636" type="line"/>
      <point x="332" y="636" type="line" smooth="yes"/>
      <point x="488" y="636"/>
      <point x="586" y="524"/>
      <point x="586" y="348" type="curve" smooth="yes"/>
      <point x="586" y="172"/>
      <point x="488" y="62"/>
      <point x="332" y="62" type="curve" smooth="yes"/>
      <point x="100" y="62" type="line"/>
    </contour>
    <contour>
      <point x="80" y="0" type="line"/>
      <point x="120" y="0" type="line"/>
      <point x="120" y="700" type="line"/>
      <point x="80" y="700" type="line"/>
    </contour>
  </outline>
</glyph>
<glyph name="E" format="2">
  <advance width="580"/>
  <unicode hex="0045"/>
  <anchor x="532" y="0" name="ogonek"/>
  <anchor x="316" y="700" name="top"/>
  <outline>
    <contour>
      <point x="100" y="636" type="line"/>
      <point x="536" y="636" type="line"/>
      <point x="536" y="700" type="line"/>
      <point x="100" y="700" type="line"/>
    </contour>
    <contour>
      <point x="100" y="0" type="line"/>
      <point x="532" y="0" type="line"/>
      <point x="532" y="62" type="line"/>
      <point x="100" y="62" type="line"/>
    </contour>
    <contour>
      <point x="80" y="0" type="line"/>
      <point x="120" y="0" type="line"/>
      <point x="120" y="700" type="line"/>
      <point x="80" y="700" type="line"/>
    </contour>
    <contour>
      <point x="100" y="329" type="line"/>
      <point x="488" y="329" type="line"/>
      <point x="488" y="367" type="line"/>
      <point x="100" y="367" type="line"/>
    </contour>
  </outline>
</glyph>
<glyph name="F" format="2">
  <advance width="548"/>
  <unicode hex="0046"/>
  <outline>
    <contour>
      <point x="100" y="634" type="line"/>
      <point x="520" y="634" type="line"/>
      <point x="520" y="700" type="line"/>
      <point x="100" y="700" type="line"/>
    </contour>
    <contour>
      <point x="80" y="0" type="line"/>
      <point x="120" y="0" type="line"/>
      <point x="120" y="700" type="line"/>
      <point x="80" y="700" type="line"/>
    </contour>
    <contour>
      <point x="100" y="308" type="line"/>
      <point x="480" y="308" type="line"/>
      <point x="480" y="348" type="line"/>
      <point x="100" y="348" type="line"/>
    </contour>
  </outline>
</glyph>
<glyph name="G" format="2">
  <advance width="700"/>
  <unicode hex="0047"/>
  <anchor x="360" y="0" name="bottom"/>
  <anchor x="352" y="700" name="top"/>
  <outline>
    <contour>
      <point x="360" y="-8" type="curve" smooth="yes"/>
      <point x="467" y="-8"/>
      <point x="566" y="45"/>
      <point x="600" y="120" type="curve"/>
      <point x="612" y="120" type="line"/>
      <point x="596" y="0" type="line"/>
      <point x="640" y="0" type="line"/>
      <point x="640" y="336" type="line"/>
      <point x="328" y="336" type="line"/>
      <point x="328" y="298" type="line"/>
      <point x="600" y="298" type="line"/>
      <point x="600" y="192" type="line"/>
      <point x="568" y="112"/>
      <point x="468" y="58"/>
      <point x="360" y="58" type="curve" smooth="yes"/>
      <point x="196" y="58"/>
      <point x="86" y="172"/>
      <point x="86" y="348" type="curve" smooth="yes"/>
      <point x="86" y="524"/>
      <point x="192" y="640"/>
      <point x="352" y="640" type="curve" smooth="yes"/>
      <point x="480" y="640"/>
      <point x="576" y="564"/>
      <point x="592" y="440" type="curve"/>
      <point x="620" y="444" type="line"/>
      <point x="616" y="600"/>
      <point x="504" y="708"/>
      <point x="352" y="708" type="curve" smooth="yes"/>
      <point x="172" y="708"/>
      <point x="48" y="559"/>
      <point x="48" y="348" type="curve" smooth="yes"/>
      <point x="48" y="139"/>
      <point x="177" y="-8"/>
    </contour>
  </outline>
</glyph>
<glyph name="H" format="2">
  <advance width="696"/>
  <unicode hex="0048"/>
  <outline>
    <contour>
      <point x="80" y="0" type="line"/>
      <point x="120" y="0" type="line"/>
      <point x="120" y="700" type="line"/>
      <point x="80" y="700" type="line"/>
    </contour>
    <contour>
      <point x="576" y="0" type="line"/>
      <point x="616" y="0" type="line"/>
      <point x="616" y="700" type="line"/>
      <point x="576" y="700" type="line"/>
    </contour>
    <contour>
      <point x="100" y="315" type="line"/>
      <point x="596" y="315" type="line"/>
      <point x="596" y="381" type="line"/>
      <point x="100" y="381" type="line"/>
    </contour>
  </outline>
</glyph>
<glyph name="I" format="2">
  <advance width="200"/>
  <unicode hex="0049"/>
  <anchor x="120" y="0" name="ogonek"/>
  <anchor x="100" y="700" name="top"/>
  <outline>
    <contour>
      <point x="80" y="0" type="line"/>
      <point x="120" y="0" type="line"/>
      <point x="120" y="700" type="line"/>
      <point x="80" y="700" type="line"/>
    </contour>
  </outline>
</glyph>
<glyph name="J" format="2">
  <advance width="252"/>
  <unicode hex="004A"/>
  <note>
Add non-descendent ss
</note>
  <outline>
    <contour>
      <point x="-96" y="-204" type="line"/>
      <point x="73" y="-232"/>
      <point x="172" y="-153"/>
      <point x="172" y="12" type="curve" smooth="yes"/>
      <point x="172" y="700" type="line"/>
      <point x="132" y="700" type="line"/>
      <point x="132" y="20" type="line" smooth="yes"/>
      <point x="132" y="-110"/>
      <point x="53" y="-164"/>
      <point x="-96" y="-136" type="curve"/>
    </contour>
  </outline>
</glyph>
<glyph name="K" format="2">
  <advance width="596"/>
  <unicode hex="004B"/>
  <anchor x="312" y="0" name="bottom"/>
  <outline>
    <contour>
      <point x="102" y="168" type="line"/>
      <point x="584" y="700" type="line"/>
      <point x="500" y="700" type="line"/>
      <point x="102" y="252" type="line"/>
    </contour>
    <contour>
      <point x="548" y="0" type="line"/>
      <point x="596" y="0" type="line"/>
      <point x="312" y="420" type="line"/>
      <point x="288" y="388" type="line"/>
    </contour>
    <component base="I"/>
  </outline>
</glyph>
<glyph name="L" format="2">
  <advance width="544"/>
  <unicode hex="004C"/>
  <anchor x="296" y="0" name="bottom"/>
  <anchor x="168" y="700" name="top"/>
  <anchor x="212" y="520" name="topright"/>
  <outline>
    <contour>
      <point x="100" y="0" type="line"/>
      <point x="520" y="0" type="line"/>
      <point x="520" y="68" type="line"/>
      <point x="100" y="68" type="line"/>
    </contour>
    <contour>
      <point x="80" y="0" type="line"/>
      <point x="120" y="0" type="line"/>
      <point x="120" y="700" type="line"/>
      <point x="80" y="700" type="line"/>
    </contour>
  </outline>
</glyph>
<glyph name="M" format="2">
  <advance width="816"/>
  <unicode hex="004D"/>
  <note>
nera
</note>
  <outline>
    <contour>
      <point x="80" y="0" type="line"/>
      <point x="120" y="0" type="line"/>
      <point x="120" y="580" type="line"/>
      <point x="132" y="580" type="line"/>
      <point x="388" y="0" type="line"/>
      <point x="436" y="0" type="line"/>
      <point x="684" y="580" type="line"/>
      <point x="696" y="580" type="line"/>
      <point x="696" y="0" type="line"/>
      <point x="736" y="0" type="line"/>
      <point x="736" y="700" type="line"/>
      <point x="680" y="700" type="line"/>
      <point x="419" y="88" type="line"/>
      <point x="407" y="88" type="line"/>
      <point x="136" y="700" type="line"/>
      <point x="80" y="700" type="line"/>
    </contour>
  </outline>
</glyph>
<glyph name="N" format="2">
  <advance width="704"/>
  <unicode hex="004E"/>
  <anchor x="352" y="0" name="bottom"/>
  <anchor x="356" y="700" name="top"/>
  <outline>
    <contour>
      <point x="80" y="0" type="line"/>
      <point x="120" y="0" type="line"/>
      <point x="120" y="604" type="line"/>
      <point x="132" y="604" type="line"/>
      <point x="580" y="0" type="line"/>
      <point x="624" y="0" type="line"/>
      <point x="624" y="700" type="line"/>
      <point x="584" y="700" type="line"/>
      <point x="584" y="104" type="line"/>
      <point x="572" y="104" type="line"/>
      <point x="132" y="700" type="line"/>
      <point x="80" y="700" type="line"/>
    </contour>
  </outline>
</glyph>
<glyph name="O" format="2">
  <advance width="736"/>
  <unicode hex="004F"/>
  <anchor x="656" y="10" name="ogonek"/>
  <anchor x="368" y="700" name="top"/>
  <outline>
    <contour>
      <point x="368" y="-8" type="curve" smooth="yes"/>
      <point x="555" y="-8"/>
      <point x="688" y="140"/>
      <point x="688" y="350" type="curve" smooth="yes"/>
      <point x="688" y="560"/>
      <point x="555" y="708"/>
      <point x="368" y="708" type="curve" smooth="yes"/>
      <point x="181" y="708"/>
      <point x="48" y="560"/>
      <point x="48" y="350" type="curve" smooth="yes"/>
      <point x="48" y="140"/>
      <point x="181" y="-8"/>
    </contour>
    <contour>
      <point x="368" y="58" type="curve" smooth="yes"/>
      <point x="196" y="58"/>
      <point x="86" y="172"/>
      <point x="86" y="348" type="curve" smooth="yes"/>
      <point x="86" y="526"/>
      <point x="196" y="640"/>
      <point x="368" y="640" type="curve" smooth="yes"/>
      <point x="540" y="640"/>
      <point x="650" y="526"/>
      <point x="650" y="348" type="curve" smooth="yes"/>
      <point x="650" y="172"/>
      <point x="540" y="58"/>
    </contour>
  </outline>
</glyph>
<glyph name="P" format="2">
  <advance width="576"/>
  <unicode hex="0050"/>
  <outline>
    <contour>
      <point x="80" y="0" type="line"/>
      <point x="120" y="0" type="line"/>
      <point x="120" y="634" type="line"/>
      <point x="344" y="634" type="line" smooth="yes"/>
      <point x="446" y="634"/>
      <point x="512" y="569"/>
      <point x="512" y="468" type="curve" smooth="yes"/>
      <point x="512" y="366"/>
      <point x="445" y="300"/>
      <point x="340" y="300" type="curve" smooth="yes"/>
      <point x="100" y="300" type="line"/>
      <point x="100" y="260" type="line"/>
      <point x="332" y="260" type="line" smooth="yes"/>
      <point x="466" y="260"/>
      <point x="560" y="353"/>
      <point x="560" y="484" type="curve" smooth="yes"/>
      <point x="560" y="611"/>
      <point x="467" y="700"/>
      <point x="336" y="700" type="curve" smooth="yes"/>
      <point x="80" y="700" type="line"/>
    </contour>
  </outline>
</glyph>
<glyph name="Q" format="2">
  <advance width="736"/>
  <unicode hex="0051"/>
  <outline>
    <contour>
      <point x="358" y="-140" type="line"/>
      <point x="386" y="-140" type="line"/>
      <point x="392" y="348" type="line"/>
      <point x="348" y="348" type="line"/>
    </contour>
    <component base="O"/>
  </outline>
</glyph>
<glyph name="R" format="2">
  <advance width="624"/>
  <unicode hex="0052"/>
  <anchor x="320" y="0" name="bottom"/>
  <anchor x="300" y="700" name="top"/>
  <outline>
    <contour>
      <point x="80" y="0" type="line"/>
      <point x="120" y="0" type="line"/>
      <point x="120" y="634" type="line"/>
      <point x="368" y="634" type="line" smooth="yes"/>
      <point x="465" y="634"/>
      <point x="528" y="574"/>
      <point x="528" y="480" type="curve" smooth="yes"/>
      <point x="528" y="385"/>
      <point x="464" y="324"/>
      <point x="364" y="324" type="curve" smooth="yes"/>
      <point x="100" y="324" type="line"/>
      <point x="100" y="286" type="line"/>
      <point x="388" y="286" type="line"/>
      <point x="368" y="302" type="line"/>
      <point x="520" y="0" type="line"/>
      <point x="584" y="0" type="line"/>
      <point x="428" y="304" type="line"/>
      <point x="416" y="296" type="line"/>
      <point x="516" y="316"/>
      <point x="576" y="392"/>
      <point x="576" y="492" type="curve" smooth="yes"/>
      <point x="576" y="612"/>
      <point x="488" y="700"/>
      <point x="360" y="700" type="curve" smooth="yes"/>
      <point x="80" y="700" type="line"/>
    </contour>
  </outline>
</glyph>
<glyph name="S" format="2">
  <advance width="592"/>
  <unicode hex="0053"/>
  <anchor x="308" y="0" name="bottom"/>
  <anchor x="292" y="700" name="top"/>
  <outline>
    <contour>
      <point x="316" y="-8" type="curve" smooth="yes"/>
      <point x="452" y="-8"/>
      <point x="548" y="70"/>
      <point x="548" y="178" type="curve" smooth="yes"/>
      <point x="548" y="269"/>
      <point x="479" y="340"/>
      <point x="372" y="356" type="curve" smooth="yes"/>
      <point x="268" y="372" type="line" smooth="yes"/>
      <point x="171" y="387"/>
      <point x="114" y="437"/>
      <point x="114" y="510" type="curve" smooth="yes"/>
      <point x="114" y="590"/>
      <point x="180" y="642"/>
      <point x="284" y="642" type="curve" smooth="yes"/>
      <point x="400" y="642"/>
      <point x="480" y="576"/>
      <point x="492" y="472" type="curve"/>
      <point x="522" y="476" type="line"/>
      <point x="522" y="612"/>
      <point x="424" y="708"/>
      <point x="284" y="708" type="curve" smooth="yes"/>
      <point x="157" y="708"/>
      <point x="68" y="632"/>
      <point x="68" y="522" type="curve" smooth="yes"/>
      <point x="68" y="427"/>
      <point x="137" y="357"/>
      <point x="244" y="340" type="curve" smooth="yes"/>
      <point x="358" y="322" type="line" smooth="yes"/>
      <point x="449" y="308"/>
      <point x="500" y="257"/>
      <point x="500" y="190" type="curve" smooth="yes"/>
      <point x="500" y="108"/>
      <point x="426" y="56"/>
      <point x="310" y="56" type="curve" smooth="yes"/>
      <point x="176" y="56"/>
      <point x="82" y="125"/>
      <point x="70" y="232" type="curve"/>
      <point x="44" y="230" type="line"/>
      <point x="48" y="91"/>
      <point x="161" y="-8"/>
    </contour>
  </outline>
</glyph>
<glyph name="T" format="2">
  <advance width="588"/>
  <unicode hex="0054"/>
  <anchor x="294" y="0" name="bottom"/>
  <anchor x="294" y="700" name="top"/>
  <outline>
    <contour>
      <point x="14" y="634" type="line"/>
      <point x="274" y="634" type="line"/>
      <point x="274" y="0" type="line"/>
      <point x="314" y="0" type="line"/>
      <point x="314" y="634" type="line"/>
      <point x="574" y="634" type="line"/>
      <point x="574" y="700" type="line"/>
      <point x="14" y="700" type="line"/>
    </contour>
  </outline>
</glyph>
<glyph name="U" format="2">
  <advance width="672"/>
  <unicode hex="0055"/>
  <anchor x="452" y="0" name="ogonek"/>
  <anchor x="336" y="700" name="top"/>
  <outline>
    <contour>
      <point x="336" y="-8" type="curve" smooth="yes"/>
      <point x="497" y="-8"/>
      <point x="600" y="94"/>
      <point x="600" y="252" type="curve" smooth="yes"/>
      <point x="600" y="700" type="line"/>
      <point x="560" y="700" type="line"/>
      <point x="560" y="268" type="line" smooth="yes"/>
      <point x="560" y="137"/>
      <point x="477" y="60"/>
      <point x="336" y="60" type="curve" smooth="yes"/>
      <point x="195" y="60"/>
      <point x="112" y="137"/>
      <point x="112" y="268" type="curve" smooth="yes"/>
      <point x="112" y="700" type="line"/>
      <point x="72" y="700" type="line"/>
      <point x="72" y="252" type="line" smooth="yes"/>
      <point x="72" y="94"/>
      <point x="175" y="-8"/>
    </contour>
  </outline>
</glyph>
<glyph name="V" format="2">
  <advance width="608"/>
  <unicode hex="0056"/>
  <note>
troppo nera
</note>
  <outline>
    <contour>
      <point x="279" y="0" type="line"/>
      <point x="335" y="0" type="line"/>
      <point x="602" y="700" type="line"/>
      <point x="558" y="700" type="line"/>
      <point x="324" y="64" type="line"/>
      <point x="312" y="64" type="line"/>
      <point x="70" y="700" type="line"/>
      <point x="4" y="700" type="line"/>
    </contour>
  </outline>
</glyph>
<glyph name="W" format="2">
  <advance width="908"/>
  <unicode hex="0057"/>
  <note>
troppo nera
</note>
  <outline>
    <contour>
      <point x="208" y="0" type="line"/>
      <point x="268" y="0" type="line"/>
      <point x="442" y="636" type="line"/>
      <point x="454" y="636" type="line"/>
      <point x="636" y="0" type="line"/>
      <point x="698" y="0" type="line"/>
      <point x="900" y="700" type="line"/>
      <point x="858" y="700" type="line"/>
      <point x="684" y="72" type="line"/>
      <point x="672" y="72" type="line"/>
      <point x="494" y="700" type="line"/>
      <point x="426" y="700" type="line"/>
      <point x="256" y="72" type="line"/>
      <point x="244" y="72" type="line"/>
      <point x="70" y="700" type="line"/>
      <point x="6" y="700" type="line"/>
    </contour>
  </outline>
</glyph>
<glyph name="X" format="2">
  <advance width="572"/>
  <unicode hex="0058"/>
  <outline>
    <contour>
      <point x="8" y="0" type="line"/>
      <point x="56" y="0" type="line"/>
      <point x="268" y="312" type="line"/>
      <point x="280" y="312" type="line"/>
      <point x="496" y="0" type="line"/>
      <point x="570" y="0" type="line"/>
      <point x="310" y="368" type="line"/>
      <point x="538" y="700" type="line"/>
      <point x="490" y="700" type="line"/>
      <point x="293" y="408" type="line"/>
      <point x="281" y="408" type="line"/>
      <point x="80" y="700" type="line"/>
      <point x="4" y="700" type="line"/>
      <point x="250" y="352" type="line"/>
    </contour>
  </outline>
</glyph>
<glyph name="Y" format="2">
  <advance width="552"/>
  <unicode hex="0059"/>
  <anchor x="288" y="700" name="top"/>
  <outline>
    <contour>
      <point x="276" y="0" type="line"/>
      <point x="316" y="0" type="line"/>
      <point x="316" y="236" type="line"/>
      <point x="552" y="700" type="line"/>
      <point x="508" y="700" type="line"/>
      <point x="311" y="304" type="line"/>
      <point x="299" y="304" type="line"/>
      <point x="70" y="700" type="line"/>
      <point x="0" y="700" type="line"/>
      <point x="276" y="236" type="line"/>
    </contour>
  </outline>
</glyph>
<glyph name="Z" format="2">
  <advance width="576"/>
  <unicode hex="005A"/>
  <anchor x="290" y="700" name="top"/>
  <outline>
    <contour>
      <point x="50" y="0" type="line"/>
      <point x="528" y="0" type="line"/>
      <point x="528" y="62" type="line"/>
      <point x="102" y="62" type="line"/>
      <point x="102" y="74" type="line"/>
      <point x="528" y="628" type="line"/>
      <point x="528" y="700" type="line"/>
      <point x="46" y="700" type="line"/>
      <point x="46" y="636" type="line"/>
      <point x="474" y="636" type="line"/>
      <point x="474" y="624" type="line"/>
      <point x="50" y="74" type="line"/>
    </contour>
  </outline>
</glyph>
<glyph name="bracketleft" format="2">
  <advance width="330"/>
  <unicode hex="005B"/>
  <note>
spazio interno
</note>
  <outline>
    <contour>
      <point x="76" y="-200" type="line"/>
      <point x="302" y="-200" type="line"/>
      <point x="302" y="-156" type="line"/>
      <point x="112" y="-156" type="line"/>
      <point x="112" y="684" type="line"/>
      <point x="302" y="684" type="line"/>
      <point x="302" y="730" type="line"/>
      <point x="76" y="730" type="line"/>
    </contour>
  </outline>
</glyph>
<glyph name="backslash" format="2">
  <advance width="344"/>
  <unicode hex="005C"/>
  <outline>
    <contour>
      <point x="296" y="-120" type="line"/>
      <point x="334" y="-120" type="line"/>
      <point x="48" y="780" type="line"/>
      <point x="10" y="780" type="line"/>
    </contour>
  </outline>
</glyph>
<glyph name="asciicircum" format="2">
  <advance width="464"/>
  <unicode hex="005E"/>
  <outline>
    <contour>
      <point x="44" y="328" type="line"/>
      <point x="228" y="664" type="line"/>
      <point x="236" y="664" type="line"/>
      <point x="420" y="328" type="line"/>
      <point x="452" y="342" type="line"/>
      <point x="281" y="700" type="line"/>
      <point x="185" y="700" type="line"/>
      <point x="12" y="342" type="line"/>
    </contour>
  </outline>
</glyph>
<glyph name="a" format="2">
  <advance width="500"/>
  <unicode hex="0061"/>
  <anchor x="434" y="0" name="ogonek"/>
  <anchor x="250" y="520" name="top"/>
  <outline>
    <contour>
      <point x="394" y="0" type="line"/>
      <point x="434" y="0" type="line"/>
      <point x="434" y="336" type="line" smooth="yes"/>
      <point x="434" y="453"/>
      <point x="364" y="528"/>
      <point x="256" y="528" type="curve" smooth="yes"/>
      <point x="155" y="528"/>
      <point x="82" y="462"/>
      <point x="70" y="360" type="curve"/>
      <point x="98" y="356" type="line"/>
      <point x="113" y="425"/>
      <point x="174" y="470"/>
      <point x="254" y="470" type="curve" smooth="yes"/>
      <point x="342" y="470"/>
      <point x="398" y="416"/>
      <point x="398" y="332" type="curve" smooth="yes"/>
      <point x="398" y="200" type="line"/>
      <point x="386" y="107"/>
      <point x="312" y="48"/>
      <point x="210" y="48" type="curve" smooth="yes"/>
      <point x="130" y="48"/>
      <point x="78" y="86"/>
      <point x="78" y="144" type="curve" smooth="yes"/>
      <point x="78" y="200"/>
      <point x="123" y="236"/>
      <point x="194" y="236" type="curve" smooth="yes"/>
      <point x="410" y="236" type="line"/>
      <point x="410" y="268" type="line"/>
      <point x="186" y="268" type="line" smooth="yes"/>
      <point x="94" y="268"/>
      <point x="34" y="215"/>
      <point x="34" y="135" type="curve" smooth="yes"/>
      <point x="34" y="49"/>
      <point x="104" y="-8"/>
      <point x="206" y="-8" type="curve" smooth="yes"/>
      <point x="306" y="-8"/>
      <point x="378" y="48"/>
      <point x="398" y="132" type="curve"/>
      <point x="410" y="132" type="line"/>
    </contour>
  </outline>
</glyph>
<glyph name="b" format="2">
  <advance width="572"/>
  <unicode hex="0062"/>
  <outline>
    <contour>
      <point x="292" y="-8" type="curve" smooth="yes"/>
      <point x="430" y="-8"/>
      <point x="528" y="106"/>
      <point x="528" y="268" type="curve" smooth="yes"/>
      <point x="528" y="420"/>
      <point x="437" y="528"/>
      <point x="308" y="528" type="curve" smooth="yes"/>
      <point x="217" y="528"/>
      <point x="140" y="473"/>
      <point x="116" y="396" type="curve"/>
      <point x="104" y="396" type="line"/>
      <point x="120" y="750" type="line"/>
      <point x="76" y="750" type="line"/>
      <point x="76" y="0" type="line"/>
      <point x="112" y="0" type="line"/>
      <point x="100" y="84" type="line"/>
      <point x="112" y="84" type="line"/>
      <point x="148" y="28"/>
      <point x="217" y="-8"/>
    </contour>
    <contour>
      <point x="296" y="50" type="curve" smooth="yes"/>
      <point x="220" y="50"/>
      <point x="148" y="80"/>
      <point x="112" y="136" type="curve"/>
      <point x="112" y="336" type="line"/>
      <point x="136" y="416"/>
      <point x="211" y="468"/>
      <point x="304" y="468" type="curve" smooth="yes"/>
      <point x="420" y="468"/>
      <point x="494" y="387"/>
      <point x="494" y="260" type="curve" smooth="yes"/>
      <point x="494" y="131"/>
      <point x="416" y="50"/>
    </contour>
  </outline>
</glyph>
<glyph name="c" format="2">
  <advance width="532"/>
  <unicode hex="0063"/>
  <anchor x="280" y="0" name="bottom"/>
  <anchor x="268" y="520" name="top"/>
  <outline>
    <contour>
      <point x="276" y="-8" type="curve" smooth="yes"/>
      <point x="394" y="-8"/>
      <point x="478" y="72"/>
      <point x="490" y="192" type="curve"/>
      <point x="466" y="196" type="line"/>
      <point x="446" y="107"/>
      <point x="371" y="50"/>
      <point x="274" y="50" type="curve" smooth="yes"/>
      <point x="155" y="50"/>
      <point x="78" y="132"/>
      <point x="78" y="260" type="curve" smooth="yes"/>
      <point x="78" y="387"/>
      <point x="153" y="468"/>
      <point x="270" y="468" type="curve" smooth="yes"/>
      <point x="367" y="468"/>
      <point x="440" y="409"/>
      <point x="456" y="318" type="curve"/>
      <point x="482" y="320" type="line"/>
      <point x="478" y="444"/>
      <point x="390" y="528"/>
      <point x="274" y="528" type="curve" smooth="yes"/>
      <point x="139" y="528"/>
      <point x="44" y="417"/>
      <point x="44" y="260" type="curve" smooth="yes"/>
      <point x="44" y="103"/>
      <point x="140" y="-8"/>
    </contour>
  </outline>
</glyph>
<glyph name="d" format="2">
  <advance width="572"/>
  <unicode hex="0064"/>
  <anchor x="496" y="520" name="topright"/>
  <outline>
    <contour>
      <point x="266" y="-8" type="curve" smooth="yes"/>
      <point x="358" y="-8"/>
      <point x="432" y="44"/>
      <point x="456" y="124" type="curve"/>
      <point x="468" y="124" type="line"/>
      <point x="456" y="0" type="line"/>
      <point x="496" y="0" type="line"/>
      <point x="496" y="750" type="line"/>
      <point x="452" y="750" type="line"/>
      <point x="472" y="432" type="line"/>
      <point x="460" y="432" type="line"/>
      <point x="432" y="488"/>
      <point x="358" y="528"/>
      <point x="278" y="528" type="curve" smooth="yes"/>
      <point x="142" y="528"/>
      <point x="44" y="415"/>
      <point x="44" y="256" type="curve" smooth="yes"/>
      <point x="44" y="101"/>
      <point x="134" y="-8"/>
    </contour>
    <contour>
      <point x="274" y="50" type="curve" smooth="yes"/>
      <point x="156" y="50"/>
      <point x="78" y="132"/>
      <point x="78" y="260" type="curve" smooth="yes"/>
      <point x="78" y="387"/>
      <point x="156" y="468"/>
      <point x="274" y="468" type="curve" smooth="yes"/>
      <point x="350" y="468"/>
      <point x="424" y="434"/>
      <point x="460" y="382" type="curve"/>
      <point x="460" y="180" type="line"/>
      <point x="438" y="100"/>
      <point x="364" y="50"/>
    </contour>
  </outline>
</glyph>
<glyph name="e" format="2">
  <advance width="528"/>
  <unicode hex="0065"/>
  <anchor x="392" y="0" name="ogonek"/>
  <anchor x="264" y="520" name="top"/>
  <outline>
    <contour>
      <point x="276" y="-8" type="curve" smooth="yes"/>
      <point x="384" y="-8"/>
      <point x="470" y="63"/>
      <point x="484" y="164" type="curve"/>
      <point x="460" y="168" type="line"/>
      <point x="437" y="95"/>
      <point x="365" y="48"/>
      <point x="276" y="48" type="curve" smooth="yes"/>
      <point x="156" y="48"/>
      <point x="78" y="131"/>
      <point x="78" y="260" type="curve" smooth="yes"/>
      <point x="78" y="388"/>
      <point x="151" y="470"/>
      <point x="264" y="470" type="curve" smooth="yes"/>
      <point x="373" y="470"/>
      <point x="444" y="392"/>
      <point x="446" y="272" type="curve"/>
      <point x="58" y="272" type="line"/>
      <point x="58" y="240" type="line"/>
      <point x="476" y="240" type="line"/>
      <point x="492" y="408"/>
      <point x="405" y="528"/>
      <point x="266" y="528" type="curve" smooth="yes"/>
      <point x="134" y="528"/>
      <point x="44" y="418"/>
      <point x="44" y="262" type="curve" smooth="yes"/>
      <point x="44" y="104"/>
      <point x="140" y="-8"/>
    </contour>
  </outline>
</glyph>
<glyph name="f" format="2">
  <advance width="308"/>
  <unicode hex="0066"/>
  <outline>
    <contour>
      <point x="94" y="0" type="line"/>
      <point x="130" y="0" type="line"/>
      <point x="130" y="464" type="line"/>
      <point x="296" y="464" type="line"/>
      <point x="296" y="520" type="line"/>
      <point x="120" y="520" type="line"/>
      <point x="120" y="588" type="line" smooth="yes"/>
      <point x="120" y="669"/>
      <point x="176" y="702"/>
      <point x="300" y="678" type="curve"/>
      <point x="300" y="750" type="line"/>
      <point x="162" y="777"/>
      <point x="94" y="717"/>
      <point x="94" y="598" type="curve" smooth="yes"/>
      <point x="94" y="520" type="line"/>
      <point x="12" y="520" type="line"/>
      <point x="12" y="464" type="line"/>
      <point x="94" y="464" type="line"/>
    </contour>
  </outline>
</glyph>
<glyph name="g" format="2">
  <advance width="564"/>
  <unicode hex="0067"/>
  <note>
Aggiustare coda
</note>
  <anchor x="296" y="520" name="top"/>
  <outline>
    <contour>
      <point x="288" y="56" type="curve" smooth="yes"/>
      <point x="424" y="56"/>
      <point x="520" y="154"/>
      <point x="520" y="292" type="curve" smooth="yes"/>
      <point x="520" y="430"/>
      <point x="424" y="528"/>
      <point x="288" y="528" type="curve" smooth="yes"/>
      <point x="152" y="528"/>
      <point x="56" y="430"/>
      <point x="56" y="292" type="curve" smooth="yes"/>
      <point x="56" y="154"/>
      <point x="152" y="56"/>
    </contour>
    <contour>
      <point x="228" y="-200" type="curve" smooth="yes"/>
      <point x="524" y="-200" type="line"/>
      <point x="524" y="-144" type="line"/>
      <point x="220" y="-144" type="line" smooth="yes"/>
      <point x="140" y="-144"/>
      <point x="88" y="-100"/>
      <point x="88" y="-32" type="curve" smooth="yes"/>
      <point x="88" y="27"/>
      <point x="129" y="72"/>
      <point x="192" y="84" type="curve"/>
      <point x="180" y="100" type="line"/>
      <point x="103" y="88"/>
      <point x="48" y="25"/>
      <point x="48" y="-52" type="curve" smooth="yes"/>
      <point x="48" y="-139"/>
      <point x="123" y="-200"/>
    </contour>
    <contour>
      <point x="288" y="90" type="curve" smooth="yes"/>
      <point x="174" y="90"/>
      <point x="100" y="164"/>
      <point x="100" y="279" type="curve" smooth="yes"/>
      <point x="100" y="394"/>
      <point x="174" y="468"/>
      <point x="288" y="468" type="curve" smooth="yes"/>
      <point x="402" y="468"/>
      <point x="476" y="394"/>
      <point x="476" y="279" type="curve" smooth="yes"/>
      <point x="476" y="164"/>
      <point x="402" y="90"/>
    </contour>
    <contour>
      <point x="448" y="468" type="line"/>
      <point x="524" y="566" type="line"/>
      <point x="488" y="588" type="line"/>
      <point x="424" y="484" type="line"/>
    </contour>
  </outline>
</glyph>
<glyph name="h" format="2">
  <advance width="550"/>
  <unicode hex="0068"/>
  <outline>
    <contour>
      <point x="76" y="0" type="line"/>
      <point x="112" y="0" type="line"/>
      <point x="112" y="340" type="line"/>
      <point x="128" y="416"/>
      <point x="198" y="464"/>
      <point x="288" y="464" type="curve" smooth="yes"/>
      <point x="385" y="464"/>
      <point x="448" y="406"/>
      <point x="448" y="316" type="curve" smooth="yes"/>
      <point x="448" y="0" type="line"/>
      <point x="484" y="0" type="line"/>
      <point x="484" y="320" type="line" smooth="yes"/>
      <point x="484" y="447"/>
      <point x="412" y="528"/>
      <point x="300" y="528" type="curve" smooth="yes"/>
      <point x="212" y="528"/>
      <point x="140" y="476"/>
      <point x="116" y="396" type="curve"/>
      <point x="104" y="396" type="line"/>
      <point x="120" y="750" type="line"/>
      <point x="76" y="750" type="line"/>
    </contour>
  </outline>
</glyph>
<glyph name="k" format="2">
  <advance width="504"/>
  <unicode hex="006B"/>
  <anchor x="266" y="0" name="bottom"/>
  <outline>
    <contour>
      <point x="92" y="116" type="line"/>
      <point x="484" y="520" type="line"/>
      <point x="406" y="520" type="line"/>
      <point x="92" y="192" type="line"/>
    </contour>
    <contour>
      <point x="452" y="0" type="line"/>
      <point x="500" y="0" type="line"/>
      <point x="268" y="320" type="line"/>
      <point x="242" y="292" type="line"/>
    </contour>
    <component base="l"/>
  </outline>
</glyph>
<glyph name="l" format="2">
  <advance width="188"/>
  <unicode hex="006C"/>
  <anchor x="94" y="0" name="bottom"/>
  <anchor x="94" y="750" name="top"/>
  <anchor x="112" y="520" name="topright"/>
  <outline>
    <contour>
      <point x="76" y="0" type="line"/>
      <point x="112" y="0" type="line"/>
      <point x="112" y="750" type="line"/>
      <point x="76" y="750" type="line"/>
    </contour>
  </outline>
</glyph>
<glyph name="m" format="2">
  <advance width="856"/>
  <unicode hex="006D"/>
  <outline>
    <contour>
      <point x="74" y="0" type="line"/>
      <point x="110" y="0" type="line"/>
      <point x="110" y="348" type="line"/>
      <point x="126" y="419"/>
      <point x="187" y="464"/>
      <point x="266" y="464" type="curve" smooth="yes"/>
      <point x="356" y="464"/>
      <point x="414" y="409"/>
      <point x="414" y="324" type="curve" smooth="yes"/>
      <point x="414" y="0" type="line"/>
      <point x="450" y="0" type="line"/>
      <point x="450" y="348" type="line"/>
      <point x="466" y="419"/>
      <point x="527" y="464"/>
      <point x="606" y="464" type="curve" smooth="yes"/>
      <point x="696" y="464"/>
      <point x="754" y="409"/>
      <point x="754" y="324" type="curve" smooth="yes"/>
      <point x="754" y="0" type="line"/>
      <point x="790" y="0" type="line"/>
      <point x="790" y="324" type="line" smooth="yes"/>
      <point x="790" y="448"/>
      <point x="724" y="528"/>
      <point x="622" y="528" type="curve" smooth="yes"/>
      <point x="538" y="528"/>
      <point x="472" y="480"/>
      <point x="448" y="400" type="curve"/>
      <point x="436" y="400" type="line"/>
      <point x="420" y="478"/>
      <point x="360" y="528"/>
      <point x="282" y="528" type="curve" smooth="yes"/>
      <point x="198" y="528"/>
      <point x="134" y="480"/>
      <point x="110" y="400" type="curve"/>
      <point x="98" y="400" type="line"/>
      <point x="114" y="520" type="line"/>
      <point x="74" y="520" type="line"/>
    </contour>
  </outline>
</glyph>
<glyph name="n" format="2">
  <advance width="548"/>
  <unicode hex="006E"/>
  <anchor x="280" y="0" name="bottom"/>
  <anchor x="282" y="520" name="top"/>
  <outline>
    <contour>
      <point x="74" y="0" type="line"/>
      <point x="110" y="0" type="line"/>
      <point x="110" y="340" type="line"/>
      <point x="126" y="414"/>
      <point x="196" y="464"/>
      <point x="286" y="464" type="curve" smooth="yes"/>
      <point x="383" y="464"/>
      <point x="446" y="406"/>
      <point x="446" y="316" type="curve" smooth="yes"/>
      <point x="446" y="0" type="line"/>
      <point x="482" y="0" type="line"/>
      <point x="482" y="320" type="line" smooth="yes"/>
      <point x="482" y="446"/>
      <point x="408" y="528"/>
      <point x="296" y="528" type="curve" smooth="yes"/>
      <point x="208" y="528"/>
      <point x="138" y="478"/>
      <point x="110" y="400" type="curve"/>
      <point x="98" y="400" type="line"/>
      <point x="114" y="520" type="line"/>
      <point x="74" y="520" type="line"/>
    </contour>
  </outline>
</glyph>
<glyph name="o" format="2">
  <advance width="560"/>
  <unicode hex="006F"/>
  <anchor x="280" y="520" name="top"/>
  <outline>
    <contour>
      <point x="280" y="-8" type="curve" smooth="yes"/>
      <point x="418" y="-8"/>
      <point x="516" y="103"/>
      <point x="516" y="260" type="curve" smooth="yes"/>
      <point x="516" y="417"/>
      <point x="418" y="528"/>
      <point x="280" y="528" type="curve" smooth="yes"/>
      <point x="142" y="528"/>
      <point x="44" y="417"/>
      <point x="44" y="260" type="curve" smooth="yes"/>
      <point x="44" y="103"/>
      <point x="142" y="-8"/>
    </contour>
    <contour>
      <point x="280" y="50" type="curve" smooth="yes"/>
      <point x="157" y="50"/>
      <point x="78" y="132"/>
      <point x="78" y="260" type="curve" smooth="yes"/>
      <point x="78" y="387"/>
      <point x="157" y="468"/>
      <point x="280" y="468" type="curve" smooth="yes"/>
      <point x="403" y="468"/>
      <point x="482" y="387"/>
      <point x="482" y="260" type="curve" smooth="yes"/>
      <point x="482" y="132"/>
      <point x="403" y="50"/>
    </contour>
  </outline>
</glyph>
<glyph name="p" format="2">
  <advance width="566"/>
  <unicode hex="0070"/>
  <outline>
    <contour>
      <point x="74" y="-200" type="line"/>
      <point x="118" y="-200" type="line"/>
      <point x="98" y="84" type="line"/>
      <point x="110" y="84" type="line"/>
      <point x="146" y="28"/>
      <point x="216" y="-8"/>
      <point x="292" y="-8" type="curve" smooth="yes"/>
      <point x="428" y="-8"/>
      <point x="522" y="102"/>
      <point x="522" y="264" type="curve" smooth="yes"/>
      <point x="522" y="419"/>
      <point x="432" y="528"/>
      <point x="304" y="528" type="curve" smooth="yes"/>
      <point x="216" y="528"/>
      <point x="138" y="476"/>
      <point x="114" y="396" type="curve"/>
      <point x="102" y="396" type="line"/>
      <point x="114" y="520" type="line"/>
      <point x="74" y="520" type="line"/>
    </contour>
    <contour>
      <point x="294" y="50" type="curve" smooth="yes"/>
      <point x="218" y="50"/>
      <point x="146" y="84"/>
      <point x="110" y="136" type="curve"/>
      <point x="110" y="336" type="line"/>
      <point x="134" y="416"/>
      <point x="208" y="468"/>
      <point x="300" y="468" type="curve" smooth="yes"/>
      <point x="414" y="468"/>
      <point x="488" y="387"/>
      <point x="488" y="260" type="curve" smooth="yes"/>
      <point x="488" y="132"/>
      <point x="412" y="50"/>
    </contour>
  </outline>
</glyph>
<glyph name="q" format="2">
  <advance width="566"/>
  <unicode hex="0071"/>
  <outline>
    <contour>
      <point x="448" y="-200" type="line"/>
      <point x="492" y="-200" type="line"/>
      <point x="492" y="520" type="line"/>
      <point x="456" y="520" type="line"/>
      <point x="468" y="432" type="line"/>
      <point x="456" y="432" type="line"/>
      <point x="428" y="488"/>
      <point x="358" y="528"/>
      <point x="278" y="528" type="curve" smooth="yes"/>
      <point x="140" y="528"/>
      <point x="44" y="415"/>
      <point x="44" y="256" type="curve" smooth="yes"/>
      <point x="44" y="101"/>
      <point x="136" y="-8"/>
      <point x="268" y="-8" type="curve" smooth="yes"/>
      <point x="358" y="-8"/>
      <point x="428" y="40"/>
      <point x="452" y="124" type="curve"/>
      <point x="464" y="124" type="line"/>
    </contour>
    <contour>
      <point x="272" y="50" type="curve" smooth="yes"/>
      <point x="154" y="50"/>
      <point x="78" y="132"/>
      <point x="78" y="260" type="curve" smooth="yes"/>
      <point x="78" y="387"/>
      <point x="154" y="468"/>
      <point x="272" y="468" type="curve" smooth="yes"/>
      <point x="348" y="468"/>
      <point x="420" y="434"/>
      <point x="456" y="382" type="curve"/>
      <point x="456" y="180" type="line"/>
      <point x="434" y="100"/>
      <point x="362" y="50"/>
    </contour>
  </outline>
</glyph>
<glyph name="r" format="2">
  <advance width="328"/>
  <unicode hex="0072"/>
  <anchor x="96" y="0" name="bottom"/>
  <anchor x="180" y="520" name="top"/>
  <outline>
    <contour>
      <point x="74" y="0" type="line"/>
      <point x="110" y="0" type="line"/>
      <point x="110" y="284" type="line" smooth="yes"/>
      <point x="110" y="420"/>
      <point x="182" y="480"/>
      <point x="306" y="460" type="curve"/>
      <point x="306" y="524" type="line"/>
      <point x="206" y="544"/>
      <point x="130" y="495"/>
      <point x="110" y="399" type="curve"/>
      <point x="98" y="399" type="line"/>
      <point x="114" y="520" type="line"/>
      <point x="74" y="520" type="line"/>
    </contour>
  </outline>
</glyph>
<glyph name="s" format="2">
  <advance width="456"/>
  <unicode hex="0073"/>
  <anchor x="230" y="0" name="bottom"/>
  <anchor x="226" y="520" name="top"/>
  <outline>
    <contour>
      <point x="238" y="-8" type="curve" smooth="yes"/>
      <point x="345" y="-8"/>
      <point x="420" y="52"/>
      <point x="420" y="136" type="curve" smooth="yes"/>
      <point x="420" y="206"/>
      <point x="365" y="258"/>
      <point x="280" y="268" type="curve" smooth="yes"/>
      <point x="212" y="276" type="line" smooth="yes"/>
      <point x="143" y="284"/>
      <point x="102" y="320"/>
      <point x="102" y="374" type="curve" smooth="yes"/>
      <point x="102" y="434"/>
      <point x="151" y="472"/>
      <point x="228" y="472" type="curve" smooth="yes"/>
      <point x="309" y="472"/>
      <point x="364" y="423"/>
      <point x="372" y="350" type="curve"/>
      <point x="400" y="352" type="line"/>
      <point x="396" y="455"/>
      <point x="324" y="528"/>
      <point x="220" y="528" type="curve" smooth="yes"/>
      <point x="124" y="528"/>
      <point x="54" y="468"/>
      <point x="54" y="384" type="curve" smooth="yes"/>
      <point x="54" y="304"/>
      <point x="116" y="254"/>
      <point x="200" y="244" type="curve" smooth="yes"/>
      <point x="268" y="236" type="line" smooth="yes"/>
      <point x="335" y="228"/>
      <point x="374" y="194"/>
      <point x="374" y="144" type="curve" smooth="yes"/>
      <point x="374" y="84"/>
      <point x="320" y="46"/>
      <point x="236" y="46" type="curve" smooth="yes"/>
      <point x="136" y="46"/>
      <point x="64" y="96"/>
      <point x="52" y="174" type="curve"/>
      <point x="28" y="172" type="line"/>
      <point x="32" y="67"/>
      <point x="119" y="-8"/>
    </contour>
  </outline>
</glyph>
<glyph name="t" format="2">
  <advance width="316"/>
  <unicode hex="0074"/>
  <anchor x="184" y="0" name="bottom"/>
  <anchor x="136" y="540" name="topright"/>
  <outline>
    <contour>
      <point x="296" y="0" type="curve"/>
      <point x="296" y="58" type="line"/>
      <point x="188" y="34"/>
      <point x="124" y="64"/>
      <point x="124" y="152" type="curve" smooth="yes"/>
      <point x="124" y="464" type="line"/>
      <point x="288" y="464" type="line"/>
      <point x="288" y="520" type="line"/>
      <point x="116" y="520" type="line"/>
      <point x="132" y="664" type="line"/>
      <point x="88" y="664" type="line"/>
      <point x="88" y="520" type="line"/>
      <point x="12" y="520" type="line"/>
      <point x="12" y="464" type="line"/>
      <point x="88" y="464" type="line"/>
      <point x="88" y="128" type="line" smooth="yes"/>
      <point x="88" y="20"/>
      <point x="168" y="-28"/>
    </contour>
  </outline>
</glyph>
<glyph name="u" format="2">
  <advance width="540"/>
  <unicode hex="0075"/>
  <anchor x="466" y="0" name="ogonek"/>
  <anchor x="268" y="520" name="top"/>
  <outline>
    <contour>
      <point x="258" y="-8" type="curve" smooth="yes"/>
      <point x="340" y="-8"/>
      <point x="411" y="35"/>
      <point x="430" y="96" type="curve"/>
      <point x="442" y="96" type="line"/>
      <point x="430" y="0" type="line"/>
      <point x="466" y="0" type="line"/>
      <point x="466" y="520" type="line"/>
      <point x="430" y="520" type="line"/>
      <point x="430" y="164" type="line"/>
      <point x="412" y="97"/>
      <point x="346" y="54"/>
      <point x="262" y="54" type="curve" smooth="yes"/>
      <point x="165" y="54"/>
      <point x="102" y="111"/>
      <point x="102" y="200" type="curve" smooth="yes"/>
      <point x="102" y="520" type="line"/>
      <point x="66" y="520" type="line"/>
      <point x="66" y="188" type="line" smooth="yes"/>
      <point x="66" y="73"/>
      <point x="146" y="-8"/>
    </contour>
  </outline>
</glyph>
<glyph name="v" format="2">
  <advance width="466"/>
  <unicode hex="0076"/>
  <outline>
    <contour>
      <point x="204" y="0" type="line"/>
      <point x="272" y="0" type="line"/>
      <point x="460" y="520" type="line"/>
      <point x="420" y="520" type="line"/>
      <point x="252" y="44" type="line"/>
      <point x="240" y="44" type="line"/>
      <point x="64" y="520" type="line"/>
      <point x="4" y="520" type="line"/>
    </contour>
  </outline>
</glyph>
<glyph name="w" format="2">
  <advance width="706"/>
  <unicode hex="0077"/>
  <outline>
    <contour>
      <point x="160" y="0" type="line"/>
      <point x="220" y="0" type="line"/>
      <point x="346" y="468" type="line"/>
      <point x="358" y="468" type="line"/>
      <point x="492" y="0" type="line"/>
      <point x="552" y="0" type="line"/>
      <point x="700" y="520" type="line"/>
      <point x="662" y="520" type="line"/>
      <point x="535" y="60" type="line"/>
      <point x="523" y="60" type="line"/>
      <point x="392" y="520" type="line"/>
      <point x="328" y="520" type="line"/>
      <point x="203" y="60" type="line"/>
      <point x="191" y="60" type="line"/>
      <point x="62" y="520" type="line"/>
      <point x="4" y="520" type="line"/>
    </contour>
  </outline>
</glyph>
<glyph name="x" format="2">
  <advance width="460"/>
  <unicode hex="0078"/>
  <outline>
    <contour>
      <point x="20" y="0" type="line"/>
      <point x="66" y="0" type="line"/>
      <point x="218" y="224" type="line"/>
      <point x="230" y="224" type="line"/>
      <point x="386" y="0" type="line"/>
      <point x="452" y="0" type="line"/>
      <point x="260" y="272" type="line"/>
      <point x="432" y="520" type="line"/>
      <point x="384" y="520" type="line"/>
      <point x="242" y="308" type="line"/>
      <point x="230" y="308" type="line"/>
      <point x="86" y="520" type="line"/>
      <point x="16" y="520" type="line"/>
      <point x="200" y="260" type="line"/>
    </contour>
  </outline>
</glyph>
<glyph name="y" format="2">
  <advance width="480"/>
  <unicode hex="0079"/>
  <anchor x="248" y="520" name="top"/>
  <outline>
    <contour>
      <point x="156" y="-200" type="line"/>
      <point x="196" y="-200" type="line"/>
      <point x="474" y="520" type="line"/>
      <point x="432" y="520" type="line"/>
      <point x="266" y="80" type="line"/>
      <point x="254" y="80" type="line"/>
      <point x="64" y="520" type="line"/>
      <point x="4" y="520" type="line"/>
      <point x="234" y="0" type="line"/>
      <point x="234" y="0" type="line"/>
    </contour>
  </outline>
</glyph>
<glyph name="z" format="2">
  <advance width="476"/>
  <unicode hex="007A"/>
  <anchor x="240" y="520" name="top"/>
  <outline>
    <contour>
      <point x="52" y="0" type="line"/>
      <point x="432" y="0" type="line"/>
      <point x="432" y="56" type="line"/>
      <point x="102" y="56" type="line"/>
      <point x="102" y="68" type="line"/>
      <point x="432" y="462" type="line"/>
      <point x="432" y="520" type="line"/>
      <point x="48" y="520" type="line"/>
      <point x="48" y="466" type="line"/>
      <point x="380" y="466" type="line"/>
      <point x="380" y="454" type="line"/>
      <point x="52" y="60" type="line"/>
    </contour>
  </outline>
</glyph>
<glyph name="braceleft" format="2">
  <advance width="316"/>
  <unicode hex="007B"/>
  <note>
spazio interno
</note>
  <outline>
    <contour>
      <point x="282" y="-212" type="curve" smooth="yes"/>
      <point x="294" y="-212" type="line"/>
      <point x="294" y="-170" type="line"/>
      <point x="199" y="-170"/>
      <point x="138" y="-80"/>
      <point x="138" y="60" type="curve" smooth="yes"/>
      <point x="138" y="159"/>
      <point x="108" y="241"/>
      <point x="66" y="256" type="curve"/>
      <point x="66" y="268" type="line"/>
      <point x="108" y="283"/>
      <point x="138" y="365"/>
      <point x="138" y="464" type="curve" smooth="yes"/>
      <point x="138" y="603"/>
      <point x="199" y="692"/>
      <point x="294" y="692" type="curve"/>
      <point x="294" y="740" type="line"/>
      <point x="282" y="740" type="line" smooth="yes"/>
      <point x="177" y="740"/>
      <point x="102" y="626"/>
      <point x="102" y="464" type="curve" smooth="yes"/>
      <point x="102" y="355"/>
      <point x="71" y="286"/>
      <point x="22" y="286" type="curve"/>
      <point x="22" y="236" type="line"/>
      <point x="71" y="236"/>
      <point x="102" y="159"/>
      <point x="102" y="41" type="curve" smooth="yes"/>
      <point x="102" y="-107"/>
      <point x="177" y="-212"/>
    </contour>
  </outline>
</glyph>
<glyph name="bar" format="2">
  <advance width="188"/>
  <unicode hex="007C"/>
  <outline>
    <contour>
      <point x="76" y="-200" type="line"/>
      <point x="112" y="-200" type="line"/>
      <point x="112" y="730" type="line"/>
      <point x="76" y="730" type="line"/>
    </contour>
  </outline>
</glyph>
<glyph name="asciitilde" format="2">
  <advance width="564"/>
  <unicode hex="007E"/>
  <outline>
    <contour>
      <point x="376" y="200" type="curve" smooth="yes"/>
      <point x="449" y="200"/>
      <point x="500" y="258"/>
      <point x="500" y="340" type="curve"/>
      <point x="464" y="340" type="line"/>
      <point x="464" y="294"/>
      <point x="436" y="264"/>
      <point x="392" y="264" type="curve" smooth="yes"/>
      <point x="312" y="264"/>
      <point x="284" y="360"/>
      <point x="188" y="360" type="curve" smooth="yes"/>
      <point x="115" y="360"/>
      <point x="64" y="302"/>
      <point x="64" y="220" type="curve"/>
      <point x="100" y="220" type="line"/>
      <point x="100" y="266"/>
      <point x="128" y="296"/>
      <point x="172" y="296" type="curve" smooth="yes"/>
      <point x="252" y="296"/>
      <point x="280" y="200"/>
    </contour>
  </outline>
</glyph>
<glyph name="exclamdown" format="2">
  <advance width="232"/>
  <unicode hex="00A1"/>
  <outline>
    <contour>
      <point x="94" y="-200" type="line"/>
      <point x="138" y="-200" type="line"/>
      <point x="128" y="336" type="line"/>
      <point x="104" y="336" type="line"/>
    </contour>
    <component base="period" xOffset="8" yOffset="424"/>
  </outline>
</glyph>
<glyph name="cent" format="2">
  <advance width="524"/>
  <unicode hex="00A2"/>
  <outline>
    <contour>
      <point x="251" y="0" type="line"/>
      <point x="285" y="0" type="line"/>
      <point x="285" y="700" type="line"/>
      <point x="251" y="700" type="line"/>
    </contour>
    <component base="c" xOffset="-4" yOffset="100"/>
  </outline>
</glyph>
<glyph name="sterling" format="2">
  <advance width="564"/>
  <unicode hex="00A3"/>
  <outline>
    <contour>
      <point x="52" y="0" type="line"/>
      <point x="504" y="0" type="line"/>
      <point x="504" y="64" type="line"/>
      <point x="132" y="64" type="line"/>
      <point x="132" y="76" type="line"/>
      <point x="200" y="116"/>
      <point x="240" y="164"/>
      <point x="240" y="232" type="curve" smooth="yes"/>
      <point x="240" y="344"/>
      <point x="116" y="376"/>
      <point x="116" y="496" type="curve" smooth="yes"/>
      <point x="116" y="585"/>
      <point x="182" y="642"/>
      <point x="284" y="642" type="curve" smooth="yes"/>
      <point x="391" y="642"/>
      <point x="468" y="575"/>
      <point x="480" y="472" type="curve"/>
      <point x="508" y="476" type="line"/>
      <point x="508" y="612"/>
      <point x="414" y="708"/>
      <point x="280" y="708" type="curve" smooth="yes"/>
      <point x="156" y="708"/>
      <point x="68" y="623"/>
      <point x="68" y="504" type="curve" smooth="yes"/>
      <point x="68" y="352"/>
      <point x="208" y="332"/>
      <point x="208" y="220" type="curve" smooth="yes"/>
      <point x="208" y="148"/>
      <point x="152" y="96"/>
      <point x="52" y="60" type="curve"/>
    </contour>
    <contour>
      <point x="44" y="292" type="line"/>
      <point x="436" y="292" type="line"/>
      <point x="438" y="352" type="line"/>
      <point x="46" y="352" type="line"/>
    </contour>
  </outline>
</glyph>
<glyph name="currency" format="2">
  <advance width="448"/>
  <unicode hex="00A4"/>
  <outline>
    <contour>
      <point x="224" y="148" type="curve" smooth="yes"/>
      <point x="327" y="148"/>
      <point x="400" y="225"/>
      <point x="400" y="335" type="curve" smooth="yes"/>
      <point x="400" y="448"/>
      <point x="327" y="528"/>
      <point x="224" y="528" type="curve" smooth="yes"/>
      <point x="121" y="528"/>
      <point x="48" y="448"/>
      <point x="48" y="335" type="curve" smooth="yes"/>
      <point x="48" y="225"/>
      <point x="121" y="148"/>
    </contour>
    <contour>
      <point x="80" y="116" type="line"/>
      <point x="144" y="198" type="line"/>
      <point x="114" y="218" type="line"/>
      <point x="48" y="144" type="line"/>
    </contour>
    <contour>
      <point x="368" y="116" type="line"/>
      <point x="400" y="144" type="line"/>
      <point x="334" y="218" type="line"/>
      <point x="302" y="198" type="line"/>
    </contour>
    <contour>
      <point x="224" y="196" type="curve" smooth="yes"/>
      <point x="136" y="196"/>
      <point x="80" y="251"/>
      <point x="80" y="337" type="curve" smooth="yes"/>
      <point x="80" y="423"/>
      <point x="136" y="478"/>
      <point x="224" y="478" type="curve" smooth="yes"/>
      <point x="312" y="478"/>
      <point x="368" y="423"/>
      <point x="368" y="337" type="curve" smooth="yes"/>
      <point x="368" y="251"/>
      <point x="312" y="196"/>
    </contour>
    <contour>
      <point x="116" y="456" type="line"/>
      <point x="144" y="476" type="line"/>
      <point x="80" y="556" type="line"/>
      <point x="50" y="528" type="line"/>
    </contour>
    <contour>
      <point x="332" y="456" type="line"/>
      <point x="398" y="528" type="line"/>
      <point x="368" y="556" type="line"/>
      <point x="302" y="476" type="line"/>
    </contour>
  </outline>
</glyph>
<glyph name="yen" format="2">
  <advance width="560"/>
  <unicode hex="00A5"/>
  <outline>
    <contour>
      <point x="84" y="234" type="line"/>
      <point x="512" y="234" type="line"/>
      <point x="512" y="284" type="line"/>
      <point x="84" y="284" type="line"/>
    </contour>
    <contour>
      <point x="86" y="146" type="line"/>
      <point x="510" y="146" type="line"/>
      <point x="510" y="196" type="line"/>
      <point x="86" y="196" type="line"/>
    </contour>
    <component base="Y" xOffset="4"/>
  </outline>
</glyph>
<glyph name="brokenbar" format="2">
  <advance width="188"/>
  <unicode hex="00A6"/>
  <outline>
    <contour>
      <point x="76" y="334" type="line"/>
      <point x="112" y="334" type="line"/>
      <point x="112" y="730" type="line"/>
      <point x="76" y="730" type="line"/>
    </contour>
    <contour>
      <point x="76" y="-200" type="line"/>
      <point x="112" y="-200" type="line"/>
      <point x="112" y="180" type="line"/>
      <point x="76" y="180" type="line"/>
    </contour>
  </outline>
</glyph>
<glyph name="section" format="2">
  <advance width="528"/>
  <unicode hex="00A7"/>
  <outline>
    <contour>
      <point x="276" y="-212" type="curve" smooth="yes"/>
      <point x="398" y="-212"/>
      <point x="484" y="-144"/>
      <point x="484" y="-48" type="curve" smooth="yes"/>
      <point x="484" y="15"/>
      <point x="446" y="70"/>
      <point x="388" y="92" type="curve"/>
      <point x="388" y="104" type="line"/>
      <point x="445" y="122"/>
      <point x="482" y="175"/>
      <point x="482" y="240" type="curve" smooth="yes"/>
      <point x="482" y="320"/>
      <point x="423" y="380"/>
      <point x="330" y="394" type="curve" smooth="yes"/>
      <point x="236" y="408" type="line" smooth="yes"/>
      <point x="153" y="420"/>
      <point x="104" y="466"/>
      <point x="104" y="532" type="curve" smooth="yes"/>
      <point x="104" y="605"/>
      <point x="162" y="652"/>
      <point x="252" y="652" type="curve" smooth="yes"/>
      <point x="353" y="652"/>
      <point x="424" y="593"/>
      <point x="434" y="500" type="curve"/>
      <point x="462" y="502" type="line"/>
      <point x="462" y="623"/>
      <point x="373" y="708"/>
      <point x="248" y="708" type="curve" smooth="yes"/>
      <point x="136" y="708"/>
      <point x="56" y="640"/>
      <point x="56" y="544" type="curve" smooth="yes"/>
      <point x="56" y="479"/>
      <point x="98" y="419"/>
      <point x="156" y="396" type="curve"/>
      <point x="156" y="384" type="line"/>
      <point x="96" y="362"/>
      <point x="58" y="307"/>
      <point x="58" y="244" type="curve" smooth="yes"/>
      <point x="58" y="165"/>
      <point x="118" y="106"/>
      <point x="212" y="92" type="curve" smooth="yes"/>
      <point x="316" y="76" type="line" smooth="yes"/>
      <point x="394" y="64"/>
      <point x="438" y="20"/>
      <point x="438" y="-40" type="curve" smooth="yes"/>
      <point x="438" y="-112"/>
      <point x="373" y="-158"/>
      <point x="272" y="-158" type="curve" smooth="yes"/>
      <point x="162" y="-158"/>
      <point x="84" y="-101"/>
      <point x="72" y="-13" type="curve"/>
      <point x="40" y="-15" type="line"/>
      <point x="44" y="-130"/>
      <point x="142" y="-212"/>
    </contour>
    <contour>
      <point x="272" y="124" type="curve" smooth="yes"/>
      <point x="170" y="124"/>
      <point x="104" y="171"/>
      <point x="104" y="244" type="curve" smooth="yes"/>
      <point x="104" y="317"/>
      <point x="170" y="364"/>
      <point x="272" y="364" type="curve" smooth="yes"/>
      <point x="373" y="364"/>
      <point x="438" y="316"/>
      <point x="438" y="242" type="curve" smooth="yes"/>
      <point x="438" y="170"/>
      <point x="373" y="124"/>
    </contour>
  </outline>
</glyph>
<glyph name="copyright" format="2">
  <advance width="856"/>
  <unicode hex="00A9"/>
  <outline>
    <contour>
      <point x="428" y="-108" type="curve" smooth="yes"/>
      <point x="644" y="-108"/>
      <point x="796" y="61"/>
      <point x="796" y="300" type="curve" smooth="yes"/>
      <point x="796" y="539"/>
      <point x="644" y="708"/>
      <point x="428" y="708" type="curve" smooth="yes"/>
      <point x="212" y="708"/>
      <point x="60" y="539"/>
      <point x="60" y="300" type="curve" smooth="yes"/>
      <point x="60" y="61"/>
      <point x="212" y="-108"/>
    </contour>
    <contour>
      <point x="438" y="48" type="curve" smooth="yes"/>
      <point x="545" y="48"/>
      <point x="621" y="123"/>
      <point x="632" y="240" type="curve"/>
      <point x="608" y="244" type="line"/>
      <point x="588" y="157"/>
      <point x="520" y="104"/>
      <point x="434" y="104" type="curve" smooth="yes"/>
      <point x="331" y="104"/>
      <point x="262" y="180"/>
      <point x="262" y="298" type="curve" smooth="yes"/>
      <point x="262" y="408"/>
      <point x="327" y="478"/>
      <point x="428" y="478" type="curve" smooth="yes"/>
      <point x="514" y="478"/>
      <point x="580" y="422"/>
      <point x="596" y="334" type="curve"/>
      <point x="622" y="336" type="line"/>
      <point x="618" y="458"/>
      <point x="544" y="536"/>
      <point x="434" y="536" type="curve" smooth="yes"/>
      <point x="313" y="536"/>
      <point x="228" y="437"/>
      <point x="228" y="296" type="curve" smooth="yes"/>
      <point x="228" y="151"/>
      <point x="316" y="48"/>
    </contour>
    <contour>
      <point x="428" y="-50" type="curve" smooth="yes"/>
      <point x="226" y="-50"/>
      <point x="96" y="87"/>
      <point x="96" y="299" type="curve" smooth="yes"/>
      <point x="96" y="511"/>
      <point x="226" y="648"/>
      <point x="428" y="648" type="curve" smooth="yes"/>
      <point x="630" y="648"/>
      <point x="760" y="511"/>
      <point x="760" y="299" type="curve" smooth="yes"/>
      <point x="760" y="87"/>
      <point x="630" y="-50"/>
    </contour>
  </outline>
</glyph>
<glyph name="ordfeminine" format="2">
  <advance width="364"/>
  <unicode hex="00AA"/>
  <outline>
    <contour>
      <point x="278" y="342" type="line"/>
      <point x="314" y="342" type="line"/>
      <point x="314" y="572" type="line" smooth="yes"/>
      <point x="314" y="652"/>
      <point x="262" y="708"/>
      <point x="188" y="708" type="curve" smooth="yes"/>
      <point x="115" y="708"/>
      <point x="60" y="657"/>
      <point x="56" y="584" type="curve"/>
      <point x="84" y="580" type="line"/>
      <point x="92" y="626"/>
      <point x="132" y="654"/>
      <point x="184" y="654" type="curve" smooth="yes"/>
      <point x="246" y="654"/>
      <point x="282" y="617"/>
      <point x="282" y="560" type="curve" smooth="yes"/>
      <point x="282" y="480" type="line"/>
      <point x="274" y="422"/>
      <point x="224" y="382"/>
      <point x="156" y="382" type="curve" smooth="yes"/>
      <point x="105" y="382"/>
      <point x="72" y="407"/>
      <point x="72" y="444" type="curve" smooth="yes"/>
      <point x="72" y="480"/>
      <point x="101" y="503"/>
      <point x="146" y="503" type="curve" smooth="yes"/>
      <point x="296" y="503" type="line"/>
      <point x="296" y="533" type="line"/>
      <point x="141" y="533" type="line" smooth="yes"/>
      <point x="77" y="533"/>
      <point x="32" y="493"/>
      <point x="32" y="436" type="curve" smooth="yes"/>
      <point x="32" y="377"/>
      <point x="82" y="336"/>
      <point x="152" y="336" type="curve" smooth="yes"/>
      <point x="220" y="336"/>
      <point x="270" y="373"/>
      <point x="282" y="433" type="curve"/>
      <point x="290" y="433" type="line"/>
    </contour>
  </outline>
</glyph>
<glyph name="logicalnot" format="2">
  <advance width="564"/>
  <unicode hex="00AC"/>
  <outline>
    <contour>
      <point x="454" y="80" type="line"/>
      <point x="492" y="80" type="line"/>
      <point x="492" y="308" type="line"/>
      <point x="60" y="308" type="line"/>
      <point x="60" y="252" type="line"/>
      <point x="474" y="252" type="line"/>
      <point x="454" y="272" type="line"/>
    </contour>
  </outline>
</glyph>
<glyph name="registered" format="2">
  <advance width="416"/>
  <unicode hex="00AE"/>
  <outline>
    <contour>
      <point x="208" y="324" type="curve" smooth="yes"/>
      <point x="311" y="324"/>
      <point x="384" y="401"/>
      <point x="384" y="511" type="curve" smooth="yes"/>
      <point x="384" y="624"/>
      <point x="311" y="704"/>
      <point x="208" y="704" type="curve" smooth="yes"/>
      <point x="105" y="704"/>
      <point x="32" y="624"/>
      <point x="32" y="511" type="curve" smooth="yes"/>
      <point x="32" y="401"/>
      <point x="105" y="324"/>
    </contour>
    <contour>
      <point x="208" y="368" type="curve" smooth="yes"/>
      <point x="119" y="368"/>
      <point x="62" y="425"/>
      <point x="62" y="513" type="curve" smooth="yes"/>
      <point x="62" y="601"/>
      <point x="119" y="658"/>
      <point x="208" y="658" type="curve" smooth="yes"/>
      <point x="297" y="658"/>
      <point x="354" y="601"/>
      <point x="354" y="513" type="curve" smooth="yes"/>
      <point x="354" y="425"/>
      <point x="297" y="368"/>
    </contour>
    <contour>
      <point x="136" y="406" type="line"/>
      <point x="164" y="406" type="line"/>
      <point x="164" y="574" type="line"/>
      <point x="224" y="574" type="line" smooth="yes"/>
      <point x="246" y="574"/>
      <point x="260" y="561"/>
      <point x="260" y="542" type="curve" smooth="yes"/>
      <point x="260" y="523"/>
      <point x="246" y="510"/>
      <point x="224" y="510" type="curve" smooth="yes"/>
      <point x="144" y="510" type="line"/>
      <point x="144" y="484" type="line"/>
      <point x="236" y="484" type="line"/>
      <point x="220" y="492" type="line"/>
      <point x="250" y="406" type="line"/>
      <point x="292" y="406" type="line"/>
      <point x="252" y="504" type="line"/>
      <point x="244" y="488" type="line"/>
      <point x="272" y="494"/>
      <point x="292" y="520"/>
      <point x="292" y="552" type="curve" smooth="yes"/>
      <point x="292" y="591"/>
      <point x="263" y="618"/>
      <point x="222" y="618" type="curve" smooth="yes"/>
      <point x="136" y="618" type="line"/>
    </contour>
  </outline>
</glyph>
<glyph name="degree" format="2">
  <advance width="416"/>
  <unicode hex="00B0"/>
  <outline>
    <contour>
      <point x="208" y="324" type="curve" smooth="yes"/>
      <point x="311" y="324"/>
      <point x="384" y="401"/>
      <point x="384" y="511" type="curve" smooth="yes"/>
      <point x="384" y="624"/>
      <point x="311" y="704"/>
      <point x="208" y="704" type="curve" smooth="yes"/>
      <point x="105" y="704"/>
      <point x="32" y="624"/>
      <point x="32" y="511" type="curve" smooth="yes"/>
      <point x="32" y="401"/>
      <point x="105" y="324"/>
    </contour>
    <contour>
      <point x="208" y="372" type="curve" smooth="yes"/>
      <point x="120" y="372"/>
      <point x="64" y="427"/>
      <point x="64" y="513" type="curve" smooth="yes"/>
      <point x="64" y="599"/>
      <point x="120" y="654"/>
      <point x="208" y="654" type="curve" smooth="yes"/>
      <point x="296" y="654"/>
      <point x="352" y="599"/>
      <point x="352" y="513" type="curve" smooth="yes"/>
      <point x="352" y="427"/>
      <point x="296" y="372"/>
    </contour>
  </outline>
</glyph>
<glyph name="plusminus" format="2">
  <advance width="564"/>
  <unicode hex="00B1"/>
  <outline>
    <contour>
      <point x="72" y="302" type="line"/>
      <point x="492" y="302" type="line"/>
      <point x="492" y="356" type="line"/>
      <point x="72" y="356" type="line"/>
    </contour>
    <contour>
      <point x="74" y="60" type="line"/>
      <point x="490" y="60" type="line"/>
      <point x="490" y="114" type="line"/>
      <point x="74" y="114" type="line"/>
    </contour>
    <contour>
      <point x="263" y="154" type="line"/>
      <point x="301" y="154" type="line"/>
      <point x="301" y="528" type="line"/>
      <point x="263" y="528" type="line"/>
    </contour>
  </outline>
</glyph>
<glyph name="twosuperior" format="2">
  <advance width="296"/>
  <unicode hex="00B2"/>
  <outline>
    <contour>
      <point x="36" y="332" type="line"/>
      <point x="260" y="332" type="line"/>
      <point x="260" y="384" type="line"/>
      <point x="104" y="384" type="line"/>
      <point x="104" y="392" type="line"/>
      <point x="208" y="444"/>
      <point x="260" y="508"/>
      <point x="260" y="584" type="curve" smooth="yes"/>
      <point x="260" y="654"/>
      <point x="214" y="704"/>
      <point x="150" y="704" type="curve" smooth="yes"/>
      <point x="79" y="704"/>
      <point x="32" y="646"/>
      <point x="32" y="564" type="curve"/>
      <point x="54" y="562" type="line"/>
      <point x="57" y="618"/>
      <point x="93" y="654"/>
      <point x="146" y="654" type="curve" smooth="yes"/>
      <point x="197" y="654"/>
      <point x="230" y="622"/>
      <point x="230" y="572" type="curve" smooth="yes"/>
      <point x="230" y="498"/>
      <point x="156" y="426"/>
      <point x="36" y="382" type="curve"/>
    </contour>
  </outline>
</glyph>
<glyph name="threesuperior" format="2">
  <advance width="300"/>
  <unicode hex="00B3"/>
  <outline>
    <contour>
      <point x="155" y="324" type="curve" smooth="yes"/>
      <point x="224" y="324"/>
      <point x="272" y="365"/>
      <point x="272" y="424" type="curve" smooth="yes"/>
      <point x="272" y="472"/>
      <point x="240" y="502"/>
      <point x="188" y="510" type="curve"/>
      <point x="188" y="518" type="line"/>
      <point x="236" y="530"/>
      <point x="264" y="558"/>
      <point x="264" y="604" type="curve" smooth="yes"/>
      <point x="264" y="663"/>
      <point x="218" y="704"/>
      <point x="154" y="704" type="curve" smooth="yes"/>
      <point x="81" y="704"/>
      <point x="30" y="649"/>
      <point x="30" y="572" type="curve"/>
      <point x="52" y="570" type="line"/>
      <point x="56" y="622"/>
      <point x="91" y="656"/>
      <point x="148" y="656" type="curve" smooth="yes"/>
      <point x="197" y="656"/>
      <point x="232" y="631"/>
      <point x="232" y="592" type="curve" smooth="yes"/>
      <point x="232" y="552"/>
      <point x="201" y="526"/>
      <point x="152" y="526" type="curve" smooth="yes"/>
      <point x="132" y="526" type="line"/>
      <point x="132" y="500" type="line"/>
      <point x="152" y="500" type="line" smooth="yes"/>
      <point x="207" y="500"/>
      <point x="242" y="475"/>
      <point x="242" y="436" type="curve" smooth="yes"/>
      <point x="242" y="396"/>
      <point x="209" y="370"/>
      <point x="154" y="370" type="curve" smooth="yes"/>
      <point x="95" y="370"/>
      <point x="53" y="399"/>
      <point x="48" y="442" type="curve"/>
      <point x="28" y="440" type="line"/>
      <point x="28" y="372"/>
      <point x="81" y="324"/>
    </contour>
  </outline>
</glyph>
<glyph name="micro" format="2">
  <advance width="548"/>
  <unicode hex="00B5"/>
  <outline>
    <contour>
      <point x="74" y="-200" type="line"/>
      <point x="118" y="-200" type="line"/>
      <point x="98" y="84" type="line"/>
      <point x="110" y="84" type="line"/>
      <point x="138" y="28"/>
      <point x="202" y="-8"/>
      <point x="274" y="-8" type="curve" smooth="yes"/>
      <point x="354" y="-8"/>
      <point x="418" y="33"/>
      <point x="438" y="96" type="curve"/>
      <point x="450" y="96" type="line"/>
      <point x="438" y="0" type="line"/>
      <point x="474" y="0" type="line"/>
      <point x="474" y="520" type="line"/>
      <point x="438" y="520" type="line"/>
      <point x="438" y="164" type="line"/>
      <point x="420" y="97"/>
      <point x="354" y="54"/>
      <point x="270" y="54" type="curve" smooth="yes"/>
      <point x="173" y="54"/>
      <point x="110" y="111"/>
      <point x="110" y="200" type="curve" smooth="yes"/>
      <point x="110" y="520" type="line"/>
      <point x="74" y="520" type="line"/>
    </contour>
  </outline>
</glyph>
<glyph name="paragraph" format="2">
  <advance width="556"/>
  <unicode hex="00B6"/>
  <outline>
    <contour>
      <point x="372" y="-200" type="line"/>
      <point x="404" y="-200" type="line"/>
      <point x="404" y="700" type="line"/>
      <point x="248" y="700" type="line" smooth="yes"/>
      <point x="121" y="700"/>
      <point x="32" y="624"/>
      <point x="32" y="516" type="curve" smooth="yes"/>
      <point x="32" y="408"/>
      <point x="121" y="332"/>
      <point x="248" y="332" type="curve" smooth="yes"/>
      <point x="392" y="332" type="line"/>
      <point x="372" y="352" type="line"/>
    </contour>
    <contour>
      <point x="448" y="-200" type="line"/>
      <point x="480" y="-200" type="line"/>
      <point x="480" y="700" type="line"/>
      <point x="448" y="700" type="line"/>
    </contour>
  </outline>
</glyph>
<glyph name="onesuperior" format="2">
  <advance width="216"/>
  <unicode hex="00B9"/>
  <outline>
    <contour>
      <point x="132" y="332" type="line"/>
      <point x="168" y="332" type="line"/>
      <point x="168" y="700" type="line"/>
      <point x="130" y="700" type="line"/>
      <point x="130" y="641"/>
      <point x="88" y="607"/>
      <point x="16" y="607" type="curve"/>
      <point x="16" y="551" type="line"/>
      <point x="69" y="551"/>
      <point x="109" y="572"/>
      <point x="124" y="607" type="curve"/>
      <point x="132" y="607" type="line"/>
    </contour>
  </outline>
</glyph>
<glyph name="ordmasculine" format="2">
  <advance width="412"/>
  <unicode hex="00BA"/>
  <outline>
    <contour>
      <point x="206" y="324" type="curve" smooth="yes"/>
      <point x="306" y="324"/>
      <point x="376" y="401"/>
      <point x="376" y="511" type="curve" smooth="yes"/>
      <point x="376" y="624"/>
      <point x="306" y="704"/>
      <point x="206" y="704" type="curve" smooth="yes"/>
      <point x="106" y="704"/>
      <point x="36" y="624"/>
      <point x="36" y="511" type="curve" smooth="yes"/>
      <point x="36" y="401"/>
      <point x="106" y="324"/>
    </contour>
    <contour>
      <point x="206" y="378" type="curve" smooth="yes"/>
      <point x="122" y="378"/>
      <point x="68" y="431"/>
      <point x="68" y="513" type="curve" smooth="yes"/>
      <point x="68" y="595"/>
      <point x="122" y="648"/>
      <point x="206" y="648" type="curve" smooth="yes"/>
      <point x="290" y="648"/>
      <point x="344" y="595"/>
      <point x="344" y="513" type="curve" smooth="yes"/>
      <point x="344" y="431"/>
      <point x="290" y="378"/>
    </contour>
  </outline>
</glyph>
<glyph name="questiondown" format="2">
  <advance width="436"/>
  <unicode hex="00BF"/>
  <outline>
    <contour>
      <point x="208" y="-212" type="curve" smooth="yes"/>
      <point x="330" y="-212"/>
      <point x="416" y="-110"/>
      <point x="416" y="34" type="curve"/>
      <point x="388" y="36" type="line"/>
      <point x="388" y="-76"/>
      <point x="321" y="-148"/>
      <point x="216" y="-148" type="curve" smooth="yes"/>
      <point x="120" y="-148"/>
      <point x="58" y="-90"/>
      <point x="58" y="0" type="curve" smooth="yes"/>
      <point x="58" y="156"/>
      <point x="248" y="156"/>
      <point x="248" y="336" type="curve"/>
      <point x="224" y="336" type="line"/>
      <point x="224" y="184"/>
      <point x="16" y="172"/>
      <point x="16" y="-12" type="curve" smooth="yes"/>
      <point x="16" y="-129"/>
      <point x="96" y="-212"/>
    </contour>
    <component base="period" xOffset="124" yOffset="424"/>
  </outline>
</glyph>
<glyph name="AE" format="2">
  <advance width="874"/>
  <unicode hex="00C6"/>
  <outline>
    <contour>
      <point x="4" y="0" type="line"/>
      <point x="48" y="0" type="line"/>
      <point x="336" y="636" type="line"/>
      <point x="462" y="636" type="line"/>
      <point x="462" y="700" type="line"/>
      <point x="324" y="700" type="line"/>
    </contour>
    <contour>
      <point x="126" y="188" type="line"/>
      <point x="462" y="188" type="line"/>
      <point x="462" y="252" type="line"/>
      <point x="126" y="252" type="line"/>
    </contour>
    <contour>
      <point x="462" y="0" type="line"/>
      <point x="826" y="0" type="line"/>
      <point x="826" y="62" type="line"/>
      <point x="462" y="62" type="line"/>
    </contour>
    <contour>
      <point x="442" y="0" type="line"/>
      <point x="482" y="0" type="line"/>
      <point x="482" y="700" type="line"/>
      <point x="442" y="700" type="line"/>
    </contour>
    <contour>
      <point x="462" y="329" type="line"/>
      <point x="790" y="329" type="line"/>
      <point x="790" y="367" type="line"/>
      <point x="462" y="367" type="line"/>
    </contour>
    <contour>
      <point x="462" y="636" type="line"/>
      <point x="830" y="636" type="line"/>
      <point x="830" y="700" type="line"/>
      <point x="462" y="700" type="line"/>
    </contour>
  </outline>
</glyph>
<glyph name="Idieresis" format="2">
  <advance width="200"/>
  <unicode hex="00CF"/>
  <outline>
    <contour>
      <point x="28" y="766" type="curve" smooth="yes"/>
      <point x="56" y="766"/>
      <point x="76" y="785"/>
      <point x="76" y="812" type="curve" smooth="yes"/>
      <point x="76" y="839"/>
      <point x="56" y="858"/>
      <point x="28" y="858" type="curve" smooth="yes"/>
      <point x="0" y="858"/>
      <point x="-20" y="839"/>
      <point x="-20" y="812" type="curve" smooth="yes"/>
      <point x="-20" y="785"/>
      <point x="0" y="766"/>
    </contour>
    <contour>
      <point x="172" y="766" type="curve" smooth="yes"/>
      <point x="200" y="766"/>
      <point x="220" y="785"/>
      <point x="220" y="812" type="curve" smooth="yes"/>
      <point x="220" y="839"/>
      <point x="200" y="858"/>
      <point x="172" y="858" type="curve" smooth="yes"/>
      <point x="144" y="858"/>
      <point x="124" y="839"/>
      <point x="124" y="812" type="curve" smooth="yes"/>
      <point x="124" y="785"/>
      <point x="144" y="766"/>
    </contour>
    <component base="I"/>
  </outline>
</glyph>
<glyph name="Eth" format="2">
  <advance width="682"/>
  <unicode hex="00D0"/>
  <outline>
    <contour>
      <point x="28" y="316" type="line"/>
      <point x="332" y="316" type="line"/>
      <point x="332" y="380" type="line"/>
      <point x="28" y="380" type="line"/>
    </contour>
    <contour>
      <point x="110" y="0" type="line"/>
      <point x="342" y="0" type="line" smooth="yes"/>
      <point x="516" y="0"/>
      <point x="634" y="144"/>
      <point x="634" y="352" type="curve" smooth="yes"/>
      <point x="634" y="560"/>
      <point x="516" y="700"/>
      <point x="342" y="700" type="curve" smooth="yes"/>
      <point x="110" y="700" type="line"/>
      <point x="110" y="636" type="line"/>
      <point x="342" y="636" type="line" smooth="yes"/>
      <point x="498" y="636"/>
      <point x="596" y="524"/>
      <point x="596" y="348" type="curve" smooth="yes"/>
      <point x="596" y="172"/>
      <point x="498" y="62"/>
      <point x="342" y="62" type="curve" smooth="yes"/>
      <point x="110" y="62" type="line"/>
    </contour>
    <contour>
      <point x="90" y="0" type="line"/>
      <point x="130" y="0" type="line"/>
      <point x="130" y="700" type="line"/>
      <point x="90" y="700" type="line"/>
    </contour>
  </outline>
</glyph>
<glyph name="multiply" format="2">
  <advance width="564"/>
  <unicode hex="00D7"/>
  <outline>
    <contour>
      <point x="120" y="74" type="line"/>
      <point x="282" y="244" type="line"/>
      <point x="444" y="74" type="line"/>
      <point x="476" y="106" type="line"/>
      <point x="314" y="276" type="line"/>
      <point x="480" y="442" type="line"/>
      <point x="444" y="478" type="line"/>
      <point x="282" y="310" type="line"/>
      <point x="120" y="478" type="line"/>
      <point x="84" y="442" type="line"/>
      <point x="250" y="276" type="line"/>
      <point x="88" y="106" type="line"/>
    </contour>
  </outline>
</glyph>
<glyph name="Oslash" format="2">
  <advance width="740"/>
  <unicode hex="00D8"/>
  <outline>
    <contour>
      <point x="78" y="-8" type="line"/>
      <point x="124" y="-8" type="line"/>
      <point x="678" y="708" type="line"/>
      <point x="630" y="708" type="line"/>
    </contour>
    <component base="O"/>
  </outline>
</glyph>
<glyph name="Thorn" format="2">
  <advance width="600"/>
  <unicode hex="00DE"/>
  <outline>
    <contour>
      <point x="100" y="128" type="line"/>
      <point x="340" y="128" type="line" smooth="yes"/>
      <point x="474" y="128"/>
      <point x="568" y="221"/>
      <point x="568" y="352" type="curve" smooth="yes"/>
      <point x="568" y="479"/>
      <point x="475" y="568"/>
      <point x="344" y="568" type="curve" smooth="yes"/>
      <point x="100" y="568" type="line"/>
      <point x="100" y="502" type="line"/>
      <point x="352" y="502" type="line" smooth="yes"/>
      <point x="454" y="502"/>
      <point x="520" y="437"/>
      <point x="520" y="336" type="curve" smooth="yes"/>
      <point x="520" y="234"/>
      <point x="453" y="168"/>
      <point x="348" y="168" type="curve" smooth="yes"/>
      <point x="100" y="168" type="line"/>
    </contour>
    <contour>
      <point x="80" y="0" type="line"/>
      <point x="120" y="0" type="line"/>
      <point x="120" y="700" type="line"/>
      <point x="80" y="700" type="line"/>
    </contour>
  </outline>
</glyph>
<glyph name="germandbls" format="2">
  <advance width="560"/>
  <unicode hex="00DF"/>
  <outline>
    <contour>
      <point x="72" y="0" type="line"/>
      <point x="108" y="0" type="line"/>
      <point x="108" y="524" type="line" smooth="yes"/>
      <point x="108" y="629"/>
      <point x="174" y="696"/>
      <point x="276" y="696" type="curve" smooth="yes"/>
      <point x="375" y="696"/>
      <point x="438" y="637"/>
      <point x="438" y="544" type="curve" smooth="yes"/>
      <point x="438" y="456"/>
      <point x="376" y="399"/>
      <point x="280" y="399" type="curve" smooth="yes"/>
      <point x="234" y="399" type="line"/>
      <point x="234" y="361" type="line"/>
      <point x="280" y="361" type="line" smooth="yes"/>
      <point x="394" y="361"/>
      <point x="468" y="300"/>
      <point x="468" y="204" type="curve" smooth="yes"/>
      <point x="468" y="88"/>
      <point x="363" y="31"/>
      <point x="200" y="58" type="curve"/>
      <point x="200" y="0" type="line"/>
      <point x="383" y="-29"/>
      <point x="512" y="49"/>
      <point x="512" y="188" type="curve" smooth="yes"/>
      <point x="512" y="281"/>
      <point x="459" y="353"/>
      <point x="367" y="377" type="curve"/>
      <point x="367" y="389" type="line"/>
      <point x="441" y="416"/>
      <point x="484" y="480"/>
      <point x="484" y="562" type="curve" smooth="yes"/>
      <point x="484" y="678"/>
      <point x="401" y="758"/>
      <point x="284" y="758" type="curve" smooth="yes"/>
      <point x="160" y="758"/>
      <point x="72" y="668"/>
      <point x="72" y="540" type="curve" smooth="yes"/>
    </contour>
  </outline>
</glyph>
<glyph name="ae" format="2">
  <advance width="832"/>
  <unicode hex="00E6"/>
  <outline>
    <contour>
      <point x="202" y="-8" type="curve" smooth="yes"/>
      <point x="300" y="-8"/>
      <point x="376" y="48"/>
      <point x="396" y="136" type="curve"/>
      <point x="408" y="136" type="line"/>
      <point x="436" y="48"/>
      <point x="510" y="-8"/>
      <point x="598" y="-8" type="curve" smooth="yes"/>
      <point x="698" y="-8"/>
      <point x="774" y="63"/>
      <point x="788" y="164" type="curve"/>
      <point x="764" y="168" type="line"/>
      <point x="742" y="96"/>
      <point x="673" y="50"/>
      <point x="594" y="50" type="curve" smooth="yes"/>
      <point x="486" y="50"/>
      <point x="414" y="134"/>
      <point x="414" y="264" type="curve" smooth="yes"/>
      <point x="414" y="388"/>
      <point x="481" y="468"/>
      <point x="584" y="468" type="curve" smooth="yes"/>
      <point x="683" y="468"/>
      <point x="748" y="391"/>
      <point x="750" y="272" type="curve"/>
      <point x="394" y="272" type="line"/>
      <point x="394" y="240" type="line"/>
      <point x="780" y="240" type="line"/>
      <point x="796" y="408"/>
      <point x="718" y="528"/>
      <point x="590" y="528" type="curve" smooth="yes"/>
      <point x="510" y="528"/>
      <point x="440" y="480"/>
      <point x="416" y="400" type="curve"/>
      <point x="404" y="400" type="line"/>
      <point x="388" y="478"/>
      <point x="329" y="528"/>
      <point x="252" y="528" type="curve" smooth="yes"/>
      <point x="160" y="528"/>
      <point x="82" y="460"/>
      <point x="70" y="360" type="curve"/>
      <point x="98" y="356" type="line"/>
      <point x="114" y="425"/>
      <point x="174" y="470"/>
      <point x="248" y="470" type="curve" smooth="yes"/>
      <point x="326" y="470"/>
      <point x="382" y="416"/>
      <point x="382" y="332" type="curve" smooth="yes"/>
      <point x="382" y="204" type="line"/>
      <point x="374" y="109"/>
      <point x="305" y="48"/>
      <point x="206" y="48" type="curve" smooth="yes"/>
      <point x="128" y="48"/>
      <point x="78" y="86"/>
      <point x="78" y="146" type="curve" smooth="yes"/>
      <point x="78" y="203"/>
      <point x="119" y="240"/>
      <point x="182" y="240" type="curve" smooth="yes"/>
      <point x="402" y="240" type="line"/>
      <point x="402" y="272" type="line"/>
      <point x="174" y="272" type="line" smooth="yes"/>
      <point x="92" y="272"/>
      <point x="34" y="214"/>
      <point x="34" y="136" type="curve" smooth="yes"/>
      <point x="34" y="52"/>
      <point x="106" y="-8"/>
    </contour>
  </outline>
</glyph>
<glyph name="igrave" format="2">
  <advance width="192"/>
  <unicode hex="00EC"/>
  <outline>
    <contour>
      <point x="160" y="598" type="line"/>
      <point x="176" y="622" type="line"/>
      <point x="28" y="742" type="line"/>
      <point x="0" y="700" type="line"/>
    </contour>
    <component base="idotless"/>
  </outline>
</glyph>
<glyph name="iacute" format="2">
  <advance width="192"/>
  <unicode hex="00ED"/>
  <outline>
    <contour>
      <point x="28" y="596" type="line"/>
      <point x="196" y="700" type="line"/>
      <point x="168" y="740" type="line"/>
      <point x="12" y="620" type="line"/>
    </contour>
    <component base="idotless" xOffset="8"/>
  </outline>
</glyph>
<glyph name="idieresis" format="2">
  <advance width="196"/>
  <unicode hex="00EF"/>
  <outline>
    <contour>
      <point x="28" y="644" type="curve" smooth="yes"/>
      <point x="56" y="644"/>
      <point x="76" y="663"/>
      <point x="76" y="690" type="curve" smooth="yes"/>
      <point x="76" y="717"/>
      <point x="56" y="736"/>
      <point x="28" y="736" type="curve" smooth="yes"/>
      <point x="0" y="736"/>
      <point x="-20" y="717"/>
      <point x="-20" y="690" type="curve" smooth="yes"/>
      <point x="-20" y="663"/>
      <point x="0" y="644"/>
    </contour>
    <contour>
      <point x="168" y="644" type="curve" smooth="yes"/>
      <point x="196" y="644"/>
      <point x="216" y="663"/>
      <point x="216" y="690" type="curve" smooth="yes"/>
      <point x="216" y="717"/>
      <point x="196" y="736"/>
      <point x="168" y="736" type="curve" smooth="yes"/>
      <point x="140" y="736"/>
      <point x="120" y="717"/>
      <point x="120" y="690" type="curve" smooth="yes"/>
      <point x="120" y="663"/>
      <point x="140" y="644"/>
    </contour>
    <component base="idotless" xOffset="2"/>
  </outline>
</glyph>
<glyph name="eth" format="2">
  <advance width="548"/>
  <unicode hex="00F0"/>
  <outline>
    <contour>
      <point x="260" y="-8" type="curve" smooth="yes"/>
      <point x="402" y="-8"/>
      <point x="502" y="131"/>
      <point x="502" y="328" type="curve" smooth="yes"/>
      <point x="502" y="442"/>
      <point x="465" y="546"/>
      <point x="408" y="624" type="curve"/>
      <point x="408" y="636" type="line"/>
      <point x="484" y="654" type="line"/>
      <point x="472" y="706" type="line"/>
      <point x="364" y="676" type="line"/>
      <point x="324" y="720"/>
      <point x="264" y="748"/>
      <point x="208" y="760" type="curve"/>
      <point x="200" y="720" type="line"/>
      <point x="244" y="712"/>
      <point x="284" y="698"/>
      <point x="316" y="678" type="curve"/>
      <point x="316" y="666" type="line"/>
      <point x="220" y="642" type="line"/>
      <point x="232" y="590" type="line"/>
      <point x="368" y="628" type="line"/>
      <point x="428" y="558"/>
      <point x="472" y="456"/>
      <point x="472" y="340" type="curve" smooth="yes"/>
      <point x="472" y="164"/>
      <point x="391" y="50"/>
      <point x="264" y="50" type="curve" smooth="yes"/>
      <point x="151" y="50"/>
      <point x="78" y="135"/>
      <point x="78" y="268" type="curve" smooth="yes"/>
      <point x="78" y="402"/>
      <point x="156" y="488"/>
      <point x="276" y="488" type="curve" smooth="yes"/>
      <point x="363" y="488"/>
      <point x="441" y="441"/>
      <point x="476" y="368" type="curve"/>
      <point x="476" y="404" type="line"/>
      <point x="445" y="477"/>
      <point x="363" y="528"/>
      <point x="276" y="528" type="curve" smooth="yes"/>
      <point x="140" y="528"/>
      <point x="44" y="415"/>
      <point x="44" y="255" type="curve" smooth="yes"/>
      <point x="44" y="101"/>
      <point x="133" y="-8"/>
    </contour>
  </outline>
</glyph>
<glyph name="oslash" format="2">
  <advance width="564"/>
  <unicode hex="00F8"/>
  <outline>
    <contour>
      <point x="66" y="-8" type="line"/>
      <point x="110" y="-8" type="line"/>
      <point x="522" y="528" type="line"/>
      <point x="476" y="528" type="line"/>
    </contour>
    <component base="o"/>
  </outline>
</glyph>
<glyph name="thorn" format="2">
  <advance width="568"/>
  <unicode hex="00FE"/>
  <outline>
    <contour>
      <point x="76" y="-200" type="line"/>
      <point x="116" y="-200" type="line"/>
      <point x="100" y="84" type="line"/>
      <point x="108" y="84" type="line"/>
      <point x="144" y="28"/>
      <point x="216" y="-8"/>
      <point x="292" y="-8" type="curve" smooth="yes"/>
      <point x="428" y="-8"/>
      <point x="524" y="102"/>
      <point x="524" y="264" type="curve" smooth="yes"/>
      <point x="524" y="419"/>
      <point x="434" y="528"/>
      <point x="306" y="528" type="curve" smooth="yes"/>
      <point x="216" y="528"/>
      <point x="136" y="473"/>
      <point x="112" y="396" type="curve"/>
      <point x="104" y="396" type="line"/>
      <point x="116" y="750" type="line"/>
      <point x="76" y="750" type="line"/>
    </contour>
    <contour>
      <point x="296" y="50" type="curve" smooth="yes"/>
      <point x="220" y="50"/>
      <point x="148" y="84"/>
      <point x="112" y="136" type="curve"/>
      <point x="112" y="336" type="line"/>
      <point x="136" y="416"/>
      <point x="210" y="468"/>
      <point x="302" y="468" type="curve" smooth="yes"/>
      <point x="416" y="468"/>
      <point x="490" y="387"/>
      <point x="490" y="260" type="curve" smooth="yes"/>
      <point x="490" y="132"/>
      <point x="414" y="50"/>
    </contour>
  </outline>
</glyph>
<glyph name="Aogonek" format="2">
  <advance width="616"/>
  <unicode hex="0104"/>
  <outline>
    <contour>
      <point x="610" y="-204" type="curve"/>
      <point x="610" y="-160" type="line"/>
      <point x="534" y="-180"/>
      <point x="488" y="-158"/>
      <point x="488" y="-118" type="curve" smooth="yes"/>
      <point x="488" y="-78"/>
      <point x="534" y="-28"/>
      <point x="610" y="0" type="curve"/>
      <point x="558" y="0" type="line"/>
      <point x="558" y="-8" type="line"/>
      <point x="498" y="-32"/>
      <point x="446" y="-82"/>
      <point x="446" y="-134" type="curve" smooth="yes"/>
      <point x="446" y="-194"/>
      <point x="514" y="-228"/>
    </contour>
    <component base="A"/>
  </outline>
</glyph>
<glyph name="aogonek" format="2">
  <advance width="496"/>
  <unicode hex="0105"/>
  <outline>
    <contour>
      <point x="442" y="-204" type="curve"/>
      <point x="442" y="-160" type="line"/>
      <point x="372" y="-178"/>
      <point x="322" y="-159"/>
      <point x="322" y="-112" type="curve" smooth="yes"/>
      <point x="322" y="-68"/>
      <point x="366" y="-26"/>
      <point x="430" y="0" type="curve"/>
      <point x="390" y="0" type="line"/>
      <point x="326" y="-32"/>
      <point x="282" y="-80"/>
      <point x="282" y="-132" type="curve" smooth="yes"/>
      <point x="282" y="-196"/>
      <point x="346" y="-228"/>
    </contour>
    <component base="a"/>
  </outline>
</glyph>
<glyph name="dcroat" format="2">
  <advance width="580"/>
  <unicode hex="0111"/>
  <outline>
    <contour>
      <point x="272" y="-8" type="curve" smooth="yes"/>
      <point x="364" y="-8"/>
      <point x="436" y="40"/>
      <point x="460" y="124" type="curve"/>
      <point x="472" y="124" type="line"/>
      <point x="460" y="0" type="line"/>
      <point x="500" y="0" type="line"/>
      <point x="500" y="750" type="line"/>
      <point x="460" y="750" type="line"/>
      <point x="464" y="180" type="line"/>
      <point x="442" y="101"/>
      <point x="369" y="50"/>
      <point x="278" y="50" type="curve" smooth="yes"/>
      <point x="160" y="50"/>
      <point x="84" y="134"/>
      <point x="84" y="264" type="curve" smooth="yes"/>
      <point x="84" y="403"/>
      <point x="164" y="492"/>
      <point x="288" y="492" type="curve" smooth="yes"/>
      <point x="371" y="492"/>
      <point x="447" y="450"/>
      <point x="482" y="384" type="curve"/>
      <point x="482" y="424" type="line"/>
      <point x="454" y="486"/>
      <point x="376" y="528"/>
      <point x="288" y="528" type="curve" smooth="yes"/>
      <point x="145" y="528"/>
      <point x="44" y="415"/>
      <point x="44" y="256" type="curve" smooth="yes"/>
      <point x="44" y="101"/>
      <point x="136" y="-8"/>
    </contour>
    <contour>
      <point x="284" y="636" type="line"/>
      <point x="556" y="636" type="line"/>
      <point x="556" y="690" type="line"/>
      <point x="284" y="690" type="line"/>
    </contour>
  </outline>
</glyph>
<glyph name="Hbar" format="2">
  <advance width="696"/>
  <unicode hex="0126"/>
  <outline>
    <contour>
      <point x="80" y="0" type="line"/>
      <point x="120" y="0" type="line"/>
      <point x="120" y="700" type="line"/>
      <point x="80" y="700" type="line"/>
    </contour>
    <contour>
      <point x="576" y="0" type="line"/>
      <point x="616" y="0" type="line"/>
      <point x="616" y="700" type="line"/>
      <point x="576" y="700" type="line"/>
    </contour>
    <contour>
      <point x="100" y="317" type="line"/>
      <point x="596" y="317" type="line"/>
      <point x="596" y="379" type="line"/>
      <point x="100" y="379" type="line"/>
    </contour>
    <contour>
      <point x="24" y="576" type="line"/>
      <point x="672" y="576" type="line"/>
      <point x="672" y="640" type="line"/>
      <point x="24" y="640" type="line"/>
    </contour>
  </outline>
</glyph>
<glyph name="hbar" format="2">
  <advance width="552"/>
  <unicode hex="0127"/>
  <outline>
    <contour>
      <point x="78" y="0" type="line"/>
      <point x="114" y="0" type="line"/>
      <point x="114" y="340" type="line"/>
      <point x="130" y="416"/>
      <point x="200" y="464"/>
      <point x="290" y="464" type="curve" smooth="yes"/>
      <point x="387" y="464"/>
      <point x="450" y="406"/>
      <point x="450" y="316" type="curve" smooth="yes"/>
      <point x="450" y="0" type="line"/>
      <point x="486" y="0" type="line"/>
      <point x="486" y="320" type="line" smooth="yes"/>
      <point x="486" y="447"/>
      <point x="414" y="528"/>
      <point x="302" y="528" type="curve" smooth="yes"/>
      <point x="214" y="528"/>
      <point x="142" y="476"/>
      <point x="118" y="396" type="curve"/>
      <point x="106" y="396" type="line"/>
      <point x="122" y="750" type="line"/>
      <point x="78" y="750" type="line"/>
    </contour>
    <contour>
      <point x="24" y="636" type="line"/>
      <point x="296" y="636" type="line"/>
      <point x="296" y="690" type="line"/>
      <point x="24" y="690" type="line"/>
    </contour>
  </outline>
</glyph>
<glyph name="Iogonek" format="2">
  <advance width="206"/>
  <unicode hex="012E"/>
  <outline>
    <contour>
      <point x="136" y="-204" type="curve"/>
      <point x="136" y="-160" type="line"/>
      <point x="66" y="-178"/>
      <point x="16" y="-159"/>
      <point x="16" y="-112" type="curve" smooth="yes"/>
      <point x="16" y="-68"/>
      <point x="60" y="-26"/>
      <point x="124" y="0" type="curve"/>
      <point x="84" y="0" type="line"/>
      <point x="20" y="-32"/>
      <point x="-24" y="-80"/>
      <point x="-24" y="-132" type="curve" smooth="yes"/>
      <point x="-24" y="-196"/>
      <point x="40" y="-228"/>
    </contour>
    <component base="I" xOffset="2"/>
  </outline>
</glyph>
<glyph name="iogonek" format="2">
  <advance width="186"/>
  <unicode hex="012F"/>
  <outline>
    <contour>
      <point x="128" y="-204" type="curve"/>
      <point x="128" y="-160" type="line"/>
      <point x="58" y="-178"/>
      <point x="8" y="-158"/>
      <point x="8" y="-114" type="curve" smooth="yes"/>
      <point x="8" y="-74"/>
      <point x="48" y="-28"/>
      <point x="112" y="0" type="curve"/>
      <point x="76" y="0" type="line"/>
      <point x="12" y="-32"/>
      <point x="-32" y="-80"/>
      <point x="-32" y="-132" type="curve" smooth="yes"/>
      <point x="-32" y="-196"/>
      <point x="32" y="-228"/>
    </contour>
    <component base="idotless" xOffset="2"/>
    <component base="dotaccentcomb" xOffset="-106"/>
  </outline>
</glyph>
<glyph name="idotless" format="2">
  <advance width="184"/>
  <unicode hex="0131"/>
  <anchor x="92" y="0" name="bottom"/>
  <anchor x="110" y="0" name="ogonek"/>
  <anchor x="92" y="520" name="top"/>
  <outline>
    <contour>
      <point x="74" y="0" type="line"/>
      <point x="110" y="0" type="line"/>
      <point x="110" y="520" type="line"/>
      <point x="74" y="520" type="line"/>
    </contour>
  </outline>
</glyph>
<glyph name="Lslash" format="2">
  <advance width="550"/>
  <unicode hex="0141"/>
  <outline>
    <contour>
      <point x="32" y="288" type="line"/>
      <point x="320" y="376" type="line"/>
      <point x="316" y="436" type="line"/>
      <point x="28" y="348" type="line"/>
    </contour>
    <contour>
      <point x="106" y="0" type="line"/>
      <point x="526" y="0" type="line"/>
      <point x="526" y="68" type="line"/>
      <point x="106" y="68" type="line"/>
    </contour>
    <contour>
      <point x="86" y="0" type="line"/>
      <point x="126" y="0" type="line"/>
      <point x="126" y="700" type="line"/>
      <point x="86" y="700" type="line"/>
    </contour>
  </outline>
</glyph>
<glyph name="lslash" format="2">
  <advance width="228"/>
  <unicode hex="0142"/>
  <outline>
    <contour>
      <point x="20" y="312" type="line"/>
      <point x="212" y="370" type="line"/>
      <point x="208" y="432" type="line"/>
      <point x="16" y="374" type="line"/>
    </contour>
    <component base="l" xOffset="20"/>
  </outline>
</glyph>
<glyph name="OE" format="2">
  <advance width="864"/>
  <unicode hex="0152"/>
  <outline>
    <contour>
      <point x="366" y="0" type="curve" smooth="yes"/>
      <point x="432" y="0" type="line"/>
      <point x="432" y="62" type="line"/>
      <point x="416" y="60"/>
      <point x="396" y="58"/>
      <point x="372" y="58" type="curve" smooth="yes"/>
      <point x="198" y="58"/>
      <point x="86" y="172"/>
      <point x="86" y="348" type="curve" smooth="yes"/>
      <point x="86" y="526"/>
      <point x="198" y="640"/>
      <point x="372" y="640" type="curve" smooth="yes"/>
      <point x="396" y="640"/>
      <point x="416" y="638"/>
      <point x="432" y="636" type="curve"/>
      <point x="432" y="700" type="line"/>
      <point x="366" y="700" type="line" smooth="yes"/>
      <point x="180" y="700"/>
      <point x="48" y="555"/>
      <point x="48" y="350" type="curve" smooth="yes"/>
      <point x="48" y="145"/>
      <point x="180" y="0"/>
    </contour>
    <contour>
      <point x="452" y="0" type="line"/>
      <point x="816" y="0" type="line"/>
      <point x="816" y="62" type="line"/>
      <point x="452" y="62" type="line"/>
    </contour>
    <contour>
      <point x="432" y="0" type="line"/>
      <point x="472" y="0" type="line"/>
      <point x="472" y="700" type="line"/>
      <point x="432" y="700" type="line"/>
    </contour>
    <contour>
      <point x="452" y="329" type="line"/>
      <point x="780" y="329" type="line"/>
      <point x="780" y="367" type="line"/>
      <point x="452" y="367" type="line"/>
    </contour>
    <contour>
      <point x="452" y="636" type="line"/>
      <point x="820" y="636" type="line"/>
      <point x="820" y="700" type="line"/>
      <point x="452" y="700" type="line"/>
    </contour>
  </outline>
</glyph>
<glyph name="oe" format="2">
  <advance width="896"/>
  <unicode hex="0153"/>
  <outline>
    <contour>
      <point x="258" y="-8" type="curve" smooth="yes"/>
      <point x="354" y="-8"/>
      <point x="432" y="48"/>
      <point x="456" y="140" type="curve"/>
      <point x="468" y="140" type="line"/>
      <point x="496" y="52"/>
      <point x="572" y="-8"/>
      <point x="664" y="-8" type="curve" smooth="yes"/>
      <point x="760" y="-8"/>
      <point x="840" y="60"/>
      <point x="852" y="164" type="curve"/>
      <point x="828" y="168" type="line"/>
      <point x="806" y="96"/>
      <point x="737" y="50"/>
      <point x="658" y="50" type="curve" smooth="yes"/>
      <point x="550" y="50"/>
      <point x="478" y="134"/>
      <point x="478" y="264" type="curve" smooth="yes"/>
      <point x="478" y="388"/>
      <point x="545" y="468"/>
      <point x="648" y="468" type="curve" smooth="yes"/>
      <point x="747" y="468"/>
      <point x="812" y="391"/>
      <point x="814" y="272" type="curve"/>
      <point x="458" y="272" type="line"/>
      <point x="458" y="240" type="line"/>
      <point x="844" y="240" type="line"/>
      <point x="860" y="408"/>
      <point x="782" y="528"/>
      <point x="654" y="528" type="curve" smooth="yes"/>
      <point x="566" y="528"/>
      <point x="492" y="464"/>
      <point x="468" y="376" type="curve"/>
      <point x="456" y="376" type="line"/>
      <point x="432" y="468"/>
      <point x="350" y="528"/>
      <point x="258" y="528" type="curve" smooth="yes"/>
      <point x="133" y="528"/>
      <point x="44" y="417"/>
      <point x="44" y="260" type="curve" smooth="yes"/>
      <point x="44" y="103"/>
      <point x="133" y="-8"/>
    </contour>
    <contour>
      <point x="262" y="50" type="curve" smooth="yes"/>
      <point x="150" y="50"/>
      <point x="78" y="132"/>
      <point x="78" y="260" type="curve" smooth="yes"/>
      <point x="78" y="387"/>
      <point x="150" y="468"/>
      <point x="262" y="468" type="curve" smooth="yes"/>
      <point x="374" y="468"/>
      <point x="446" y="387"/>
      <point x="446" y="260" type="curve" smooth="yes"/>
      <point x="446" y="132"/>
      <point x="374" y="50"/>
    </contour>
  </outline>
</glyph>
<glyph name="Tcedilla" format="2">
  <advance width="588"/>
  <unicode hex="0162"/>
  <outline>
    <contour>
      <point x="222" y="-206" type="line"/>
      <point x="334" y="-226"/>
      <point x="406" y="-200"/>
      <point x="406" y="-136" type="curve" smooth="yes"/>
      <point x="406" y="-81"/>
      <point x="359" y="-57"/>
      <point x="284" y="-76" type="curve"/>
      <point x="314" y="0" type="line"/>
      <point x="274" y="0" type="line"/>
      <point x="250" y="-104" type="line"/>
      <point x="262" y="-112" type="line"/>
      <point x="338" y="-92"/>
      <point x="378" y="-106"/>
      <point x="378" y="-134" type="curve" smooth="yes"/>
      <point x="378" y="-167"/>
      <point x="322" y="-184"/>
      <point x="222" y="-164" type="curve"/>
    </contour>
    <component base="T"/>
  </outline>
</glyph>
<glyph name="Uogonek" format="2">
  <advance width="672"/>
  <unicode hex="0172"/>
  <outline>
    <contour>
      <point x="488" y="-204" type="curve"/>
      <point x="488" y="-160" type="line"/>
      <point x="413" y="-180"/>
      <point x="364" y="-161"/>
      <point x="364" y="-112" type="curve" smooth="yes"/>
      <point x="364" y="-68"/>
      <point x="402" y="-16"/>
      <point x="472" y="28" type="curve" smooth="yes"/>
      <point x="548" y="76"/>
      <point x="600" y="160"/>
      <point x="600" y="252" type="curve" smooth="yes"/>
      <point x="600" y="700" type="line"/>
      <point x="560" y="700" type="line"/>
      <point x="560" y="268" type="line" smooth="yes"/>
      <point x="560" y="137"/>
      <point x="477" y="60"/>
      <point x="336" y="60" type="curve" smooth="yes"/>
      <point x="195" y="60"/>
      <point x="112" y="137"/>
      <point x="112" y="268" type="curve" smooth="yes"/>
      <point x="112" y="700" type="line"/>
      <point x="72" y="700" type="line"/>
      <point x="72" y="252" type="line" smooth="yes"/>
      <point x="72" y="96"/>
      <point x="177" y="-4"/>
      <point x="340" y="-4" type="curve" smooth="yes"/>
      <point x="356" y="-4"/>
      <point x="378" y="-3"/>
      <point x="396" y="0" type="curve"/>
      <point x="396" y="-12" type="line"/>
      <point x="356" y="-40"/>
      <point x="324" y="-84"/>
      <point x="324" y="-128" type="curve" smooth="yes"/>
      <point x="324" y="-194"/>
      <point x="392" y="-228"/>
    </contour>
  </outline>
</glyph>
<glyph name="uogonek" format="2">
  <advance width="544"/>
  <unicode hex="0173"/>
  <outline>
    <contour>
      <point x="482" y="-204" type="curve"/>
      <point x="482" y="-160" type="line"/>
      <point x="412" y="-178"/>
      <point x="362" y="-158"/>
      <point x="362" y="-114" type="curve" smooth="yes"/>
      <point x="362" y="-74"/>
      <point x="402" y="-28"/>
      <point x="466" y="0" type="curve"/>
      <point x="430" y="0" type="line"/>
      <point x="366" y="-32"/>
      <point x="322" y="-80"/>
      <point x="322" y="-132" type="curve" smooth="yes"/>
      <point x="322" y="-196"/>
      <point x="386" y="-228"/>
    </contour>
    <component base="u"/>
  </outline>
</glyph>
<glyph name="florin" format="2">
  <advance width="412"/>
  <unicode hex="0192"/>
  <outline>
    <contour>
      <point x="16" y="-2" type="line"/>
      <point x="154" y="-29"/>
      <point x="228" y="31"/>
      <point x="228" y="150" type="curve" smooth="yes"/>
      <point x="228" y="542" type="line" smooth="yes"/>
      <point x="228" y="623"/>
      <point x="278" y="654"/>
      <point x="402" y="630" type="curve"/>
      <point x="402" y="702" type="line"/>
      <point x="264" y="729"/>
      <point x="190" y="669"/>
      <point x="190" y="550" type="curve" smooth="yes"/>
      <point x="190" y="156" type="line" smooth="yes"/>
      <point x="190" y="75"/>
      <point x="136" y="42"/>
      <point x="16" y="66" type="curve"/>
    </contour>
    <contour>
      <point x="22" y="320" type="line"/>
      <point x="402" y="320" type="line"/>
      <point x="404" y="376" type="line"/>
      <point x="24" y="376" type="line"/>
    </contour>
  </outline>
</glyph>
<glyph name="jdotless" format="2">
  <advance width="200"/>
  <unicode hex="0237"/>
  <anchor x="108" y="520" name="top"/>
  <outline>
    <contour>
      <point x="-52" y="-208" type="line"/>
      <point x="56" y="-224"/>
      <point x="126" y="-159"/>
      <point x="126" y="-42" type="curve" smooth="yes"/>
      <point x="126" y="520" type="line"/>
      <point x="90" y="520" type="line"/>
      <point x="90" y="-48" type="line" smooth="yes"/>
      <point x="90" y="-122"/>
      <point x="38" y="-159"/>
      <point x="-52" y="-148" type="curve"/>
    </contour>
  </outline>
</glyph>
<glyph name="acutecomb" format="2">
  <advance width="400"/>
  <unicode hex="0301"/>
  <anchor x="200" y="520" name="_top"/>
  <outline>
    <contour>
      <point x="86" y="610" type="line"/>
      <point x="344" y="672" type="line"/>
      <point x="332" y="716" type="line"/>
      <point x="80" y="638" type="line"/>
    </contour>
  </outline>
</glyph>
<glyph name="circumflexcomb" format="2">
  <advance width="400"/>
  <unicode hex="0302"/>
  <anchor x="200" y="520" name="_top"/>
  <outline>
    <contour>
      <point x="92" y="590" type="line"/>
      <point x="200" y="710" type="line"/>
      <point x="306" y="590" type="line"/>
      <point x="332" y="608" type="line"/>
      <point x="246" y="730" type="line"/>
      <point x="156" y="730" type="line"/>
      <point x="68" y="608" type="line"/>
    </contour>
  </outline>
</glyph>
<glyph name="tildecomb" format="2">
  <advance width="400"/>
  <unicode hex="0303"/>
  <anchor x="200" y="520" name="_top"/>
  <outline>
    <contour>
      <point x="248" y="610" type="curve" smooth="yes"/>
      <point x="291" y="610"/>
      <point x="322" y="642"/>
      <point x="322" y="694" type="curve"/>
      <point x="294" y="694" type="line"/>
      <point x="294" y="672"/>
      <point x="282" y="660"/>
      <point x="264" y="660" type="curve" smooth="yes"/>
      <point x="228" y="660"/>
      <point x="208" y="718"/>
      <point x="152" y="718" type="curve" smooth="yes"/>
      <point x="109" y="718"/>
      <point x="78" y="686"/>
      <point x="78" y="634" type="curve"/>
      <point x="106" y="634" type="line"/>
      <point x="106" y="656"/>
      <point x="118" y="668"/>
      <point x="136" y="668" type="curve" smooth="yes"/>
      <point x="172" y="668"/>
      <point x="192" y="610"/>
    </contour>
  </outline>
</glyph>
<glyph name="macroncomb" format="2">
  <advance width="400"/>
  <unicode hex="0304"/>
  <anchor x="200" y="520" name="_top"/>
  <outline>
    <contour>
      <point x="64" y="644" type="line"/>
      <point x="336" y="644" type="line"/>
      <point x="336" y="684" type="line"/>
      <point x="64" y="684" type="line"/>
    </contour>
  </outline>
</glyph>
<glyph name="brevecomb" format="2">
  <advance width="400"/>
  <unicode hex="0306"/>
  <anchor x="200" y="520" name="_top"/>
  <outline>
    <contour>
      <point x="200" y="600" type="curve" smooth="yes"/>
      <point x="268" y="600"/>
      <point x="312" y="652"/>
      <point x="312" y="732" type="curve"/>
      <point x="284" y="732" type="line"/>
      <point x="284" y="680"/>
      <point x="253" y="650"/>
      <point x="200" y="650" type="curve" smooth="yes"/>
      <point x="147" y="650"/>
      <point x="116" y="680"/>
      <point x="116" y="732" type="curve"/>
      <point x="88" y="732" type="line"/>
      <point x="88" y="652"/>
      <point x="132" y="600"/>
    </contour>
  </outline>
</glyph>
<glyph name="dotaccentcomb" format="2">
  <advance width="400"/>
  <unicode hex="0307"/>
  <anchor x="200" y="520" name="_top"/>
  <outline>
    <contour>
      <point x="200" y="622" type="curve" smooth="yes"/>
      <point x="230" y="622"/>
      <point x="252" y="643"/>
      <point x="252" y="672" type="curve" smooth="yes"/>
      <point x="252" y="701"/>
      <point x="230" y="722"/>
      <point x="200" y="722" type="curve" smooth="yes"/>
      <point x="170" y="722"/>
      <point x="148" y="701"/>
      <point x="148" y="672" type="curve" smooth="yes"/>
      <point x="148" y="643"/>
      <point x="170" y="622"/>
    </contour>
  </outline>
</glyph>
<glyph name="dieresiscomb" format="2">
  <advance width="400"/>
  <unicode hex="0308"/>
  <anchor x="200" y="520" name="_top"/>
  <outline>
    <contour>
      <point x="120" y="626" type="curve" smooth="yes"/>
      <point x="148" y="626"/>
      <point x="168" y="645"/>
      <point x="168" y="672" type="curve" smooth="yes"/>
      <point x="168" y="699"/>
      <point x="148" y="718"/>
      <point x="120" y="718" type="curve" smooth="yes"/>
      <point x="92" y="718"/>
      <point x="72" y="699"/>
      <point x="72" y="672" type="curve" smooth="yes"/>
      <point x="72" y="645"/>
      <point x="92" y="626"/>
    </contour>
    <contour>
      <point x="280" y="626" type="curve" smooth="yes"/>
      <point x="308" y="626"/>
      <point x="328" y="645"/>
      <point x="328" y="672" type="curve" smooth="yes"/>
      <point x="328" y="699"/>
      <point x="308" y="718"/>
      <point x="280" y="718" type="curve" smooth="yes"/>
      <point x="252" y="718"/>
      <point x="232" y="699"/>
      <point x="232" y="672" type="curve" smooth="yes"/>
      <point x="232" y="645"/>
      <point x="252" y="626"/>
    </contour>
  </outline>
</glyph>
<glyph name="ringcomb" format="2">
  <advance width="400"/>
  <unicode hex="030A"/>
  <anchor x="200" y="520" name="_top"/>
  <outline>
    <contour>
      <point x="200" y="596" type="curve" smooth="yes"/>
      <point x="247" y="596"/>
      <point x="280" y="627"/>
      <point x="280" y="671" type="curve" smooth="yes"/>
      <point x="280" y="716"/>
      <point x="247" y="748"/>
      <point x="200" y="748" type="curve" smooth="yes"/>
      <point x="153" y="748"/>
      <point x="120" y="716"/>
      <point x="120" y="671" type="curve" smooth="yes"/>
      <point x="120" y="627"/>
      <point x="153" y="596"/>
    </contour>
    <contour>
      <point x="200" y="622" type="curve" smooth="yes"/>
      <point x="166" y="622"/>
      <point x="144" y="641"/>
      <point x="144" y="671" type="curve" smooth="yes"/>
      <point x="144" y="701"/>
      <point x="166" y="720"/>
      <point x="200" y="720" type="curve" smooth="yes"/>
      <point x="234" y="720"/>
      <point x="256" y="701"/>
      <point x="256" y="671" type="curve" smooth="yes"/>
      <point x="256" y="641"/>
      <point x="234" y="622"/>
    </contour>
  </outline>
</glyph>
<glyph name="hungarumlautcomb" format="2">
  <advance width="400"/>
  <unicode hex="030B"/>
  <anchor x="200" y="520" name="_top"/>
  <outline>
    <contour>
      <point x="88" y="596" type="line"/>
      <point x="250" y="708" type="line"/>
      <point x="224" y="740" type="line"/>
      <point x="72" y="616" type="line"/>
    </contour>
    <contour>
      <point x="202" y="604" type="line"/>
      <point x="376" y="684" type="line"/>
      <point x="356" y="724" type="line"/>
      <point x="190" y="628" type="line"/>
    </contour>
  </outline>
</glyph>
<glyph name="caroncomb" format="2">
  <advance width="400"/>
  <unicode hex="030C"/>
  <anchor x="200" y="520" name="_top"/>
  <outline>
    <contour>
      <point x="156" y="604" type="line"/>
      <point x="248" y="604" type="line"/>
      <point x="332" y="722" type="line"/>
      <point x="308" y="740" type="line"/>
      <point x="203" y="626" type="line"/>
      <point x="92" y="740" type="line"/>
      <point x="68" y="720" type="line"/>
    </contour>
  </outline>
</glyph>
<glyph name="commaaccentcomb" format="2">
  <advance width="400"/>
  <unicode hex="0326"/>
  <anchor x="200" y="0" name="_bottom"/>
  <outline>
    <contour>
      <point x="182" y="-216" type="line"/>
      <point x="224" y="-42" type="line"/>
      <point x="184" y="-36" type="line"/>
      <point x="154" y="-210" type="line"/>
    </contour>
  </outline>
</glyph>
<glyph name="cedillacomb" format="2">
  <advance width="400"/>
  <unicode hex="0327"/>
  <anchor x="204" y="0" name="_bottom"/>
  <outline>
    <contour>
      <point x="128" y="-206" type="line"/>
      <point x="240" y="-226"/>
      <point x="316" y="-200"/>
      <point x="316" y="-136" type="curve" smooth="yes"/>
      <point x="316" y="-84"/>
      <point x="264" y="-56"/>
      <point x="188" y="-76" type="curve"/>
      <point x="208" y="20" type="line"/>
      <point x="178" y="20" type="line"/>
      <point x="156" y="-104" type="line"/>
      <point x="168" y="-112" type="line"/>
      <point x="241" y="-88"/>
      <point x="288" y="-97"/>
      <point x="288" y="-132" type="curve" smooth="yes"/>
      <point x="288" y="-172"/>
      <point x="228" y="-184"/>
      <point x="128" y="-164" type="curve"/>
    </contour>
  </outline>
</glyph>
<glyph name="ogonekcomb" format="2">
  <advance width="400"/>
  <unicode hex="0328"/>
  <anchor x="224" y="0" name="_ogonek"/>
  <outline>
    <contour>
      <point x="224" y="-204" type="curve"/>
      <point x="224" y="-160" type="line"/>
      <point x="148" y="-180"/>
      <point x="100" y="-159"/>
      <point x="100" y="-116" type="curve" smooth="yes"/>
      <point x="100" y="-72"/>
      <point x="148" y="-28"/>
      <point x="224" y="0" type="curve"/>
      <point x="172" y="0" type="line"/>
      <point x="106" y="-25"/>
      <point x="60" y="-78"/>
      <point x="60" y="-130" type="curve" smooth="yes"/>
      <point x="60" y="-196"/>
      <point x="128" y="-228"/>
    </contour>
  </outline>
</glyph>
<glyph name="Germandbls" format="2">
  <advance width="620"/>
  <unicode hex="1E9E"/>
  <outline>
    <contour>
      <point x="404" y="-8" type="curve" smooth="yes"/>
      <point x="521" y="-8"/>
      <point x="604" y="64"/>
      <point x="604" y="166" type="curve" smooth="yes"/>
      <point x="604" y="258"/>
      <point x="538" y="320"/>
      <point x="438" y="332" type="curve" smooth="yes"/>
      <point x="342" y="344"/>
      <point x="284" y="400"/>
      <point x="284" y="480" type="curve" smooth="yes"/>
      <point x="284" y="565"/>
      <point x="350" y="620"/>
      <point x="452" y="620" type="curve"/>
      <point x="456" y="680" type="line"/>
      <point x="302" y="756"/>
      <point x="72" y="676"/>
      <point x="72" y="444" type="curve" smooth="yes"/>
      <point x="72" y="0" type="line"/>
      <point x="112" y="0" type="line"/>
      <point x="112" y="436" type="line" smooth="yes"/>
      <point x="112" y="560"/>
      <point x="212" y="644"/>
      <point x="340" y="644" type="curve"/>
      <point x="340" y="632" type="line"/>
      <point x="280" y="608"/>
      <point x="244" y="552"/>
      <point x="244" y="484" type="curve" smooth="yes"/>
      <point x="244" y="387"/>
      <point x="313" y="317"/>
      <point x="420" y="304" type="curve" smooth="yes"/>
      <point x="504" y="294"/>
      <point x="560" y="246"/>
      <point x="560" y="176" type="curve" smooth="yes"/>
      <point x="560" y="104"/>
      <point x="499" y="58"/>
      <point x="404" y="58" type="curve" smooth="yes"/>
      <point x="297" y="58"/>
      <point x="220" y="121"/>
      <point x="208" y="220" type="curve"/>
      <point x="180" y="216" type="line"/>
      <point x="180" y="85"/>
      <point x="273" y="-8"/>
    </contour>
  </outline>
</glyph>
<glyph name="endash" format="2">
  <advance width="500"/>
  <unicode hex="2013"/>
  <outline>
    <contour>
      <point x="0" y="228" type="line"/>
      <point x="500" y="228" type="line"/>
      <point x="500" y="284" type="line"/>
      <point x="0" y="284" type="line"/>
    </contour>
  </outline>
</glyph>
<glyph name="emdash" format="2">
  <advance width="800"/>
  <unicode hex="2014"/>
  <outline>
    <contour>
      <point x="0" y="228" type="line"/>
      <point x="800" y="228" type="line"/>
      <point x="800" y="284" type="line"/>
      <point x="0" y="284" type="line"/>
    </contour>
  </outline>
</glyph>
<glyph name="dagger" format="2">
  <advance width="368"/>
  <unicode hex="2020"/>
  <outline>
    <contour>
      <point x="20" y="424" type="line"/>
      <point x="170" y="424" type="line"/>
      <point x="164" y="0" type="line"/>
      <point x="204" y="0" type="line"/>
      <point x="198" y="424" type="line"/>
      <point x="348" y="424" type="line"/>
      <point x="348" y="480" type="line"/>
      <point x="198" y="480" type="line"/>
      <point x="206" y="700" type="line"/>
      <point x="162" y="700" type="line"/>
      <point x="170" y="480" type="line"/>
      <point x="20" y="480" type="line"/>
    </contour>
  </outline>
</glyph>
<glyph name="daggerdbl" format="2">
  <advance width="376"/>
  <unicode hex="2021"/>
  <outline>
    <contour>
      <point x="168" y="0" type="line"/>
      <point x="208" y="0" type="line"/>
      <point x="202" y="196" type="line"/>
      <point x="350" y="196" type="line"/>
      <point x="350" y="248" type="line"/>
      <point x="206" y="248" type="line"/>
      <point x="206" y="466" type="line"/>
      <point x="352" y="466" type="line"/>
      <point x="352" y="520" type="line"/>
      <point x="202" y="520" type="line"/>
      <point x="210" y="700" type="line"/>
      <point x="166" y="700" type="line"/>
      <point x="174" y="520" type="line"/>
      <point x="24" y="520" type="line"/>
      <point x="24" y="466" type="line"/>
      <point x="170" y="466" type="line"/>
      <point x="170" y="248" type="line"/>
      <point x="26" y="248" type="line"/>
      <point x="26" y="196" type="line"/>
      <point x="174" y="196" type="line"/>
    </contour>
  </outline>
</glyph>
<glyph name="bullet" format="2">
  <advance width="440"/>
  <unicode hex="2022"/>
  <outline>
    <contour>
      <point x="220" y="152" type="curve" smooth="yes"/>
      <point x="280" y="152"/>
      <point x="324" y="196"/>
      <point x="324" y="256" type="curve" smooth="yes"/>
      <point x="324" y="316"/>
      <point x="280" y="360"/>
      <point x="220" y="360" type="curve" smooth="yes"/>
      <point x="160" y="360"/>
      <point x="116" y="316"/>
      <point x="116" y="256" type="curve" smooth="yes"/>
      <point x="116" y="196"/>
      <point x="160" y="152"/>
    </contour>
  </outline>
</glyph>
<glyph name="perthousand" format="2">
  <advance width="1108"/>
  <unicode hex="2030"/>
  <outline>
    <contour>
      <point x="926" y="-4" type="curve" smooth="yes"/>
      <point x="1016" y="-4"/>
      <point x="1080" y="68"/>
      <point x="1080" y="171" type="curve" smooth="yes"/>
      <point x="1080" y="277"/>
      <point x="1016" y="352"/>
      <point x="926" y="352" type="curve" smooth="yes"/>
      <point x="836" y="352"/>
      <point x="772" y="277"/>
      <point x="772" y="171" type="curve" smooth="yes"/>
      <point x="772" y="68"/>
      <point x="836" y="-4"/>
    </contour>
    <contour>
      <point x="926" y="44" type="curve" smooth="yes"/>
      <point x="851" y="44"/>
      <point x="802" y="94"/>
      <point x="802" y="173" type="curve" smooth="yes"/>
      <point x="802" y="252"/>
      <point x="851" y="302"/>
      <point x="926" y="302" type="curve" smooth="yes"/>
      <point x="1001" y="302"/>
      <point x="1050" y="252"/>
      <point x="1050" y="173" type="curve" smooth="yes"/>
      <point x="1050" y="94"/>
      <point x="1001" y="44"/>
    </contour>
    <component base="percent"/>
  </outline>
</glyph>
<glyph name="guilsinglleft" format="2">
  <advance width="256"/>
  <unicode hex="2039"/>
  <outline>
    <contour>
      <point x="154" y="116" type="line"/>
      <point x="216" y="116" type="line"/>
      <point x="72" y="248" type="line"/>
      <point x="72" y="260" type="line"/>
      <point x="212" y="396" type="line"/>
      <point x="154" y="396" type="line"/>
      <point x="48" y="282" type="line"/>
      <point x="48" y="226" type="line"/>
    </contour>
  </outline>
</glyph>
<glyph name="fraction" format="2">
  <advance width="552"/>
  <unicode hex="2044"/>
  <outline>
    <contour>
      <point x="10" y="0" type="line"/>
      <point x="54" y="0" type="line"/>
      <point x="542" y="700" type="line"/>
      <point x="498" y="700" type="line"/>
    </contour>
  </outline>
</glyph>
<glyph name="zerosuperior" format="2">
  <advance width="380"/>
  <unicode hex="2070"/>
  <outline>
    <contour>
      <point x="190" y="324" type="curve" smooth="yes"/>
      <point x="280" y="324"/>
      <point x="344" y="401"/>
      <point x="344" y="511" type="curve" smooth="yes"/>
      <point x="344" y="624"/>
      <point x="280" y="704"/>
      <point x="190" y="704" type="curve" smooth="yes"/>
      <point x="100" y="704"/>
      <point x="36" y="624"/>
      <point x="36" y="511" type="curve" smooth="yes"/>
      <point x="36" y="401"/>
      <point x="100" y="324"/>
    </contour>
    <contour>
      <point x="190" y="376" type="curve" smooth="yes"/>
      <point x="115" y="376"/>
      <point x="66" y="430"/>
      <point x="66" y="513" type="curve" smooth="yes"/>
      <point x="66" y="596"/>
      <point x="115" y="650"/>
      <point x="190" y="650" type="curve" smooth="yes"/>
      <point x="265" y="650"/>
      <point x="314" y="596"/>
      <point x="314" y="513" type="curve" smooth="yes"/>
      <point x="314" y="430"/>
      <point x="265" y="376"/>
    </contour>
  </outline>
</glyph>
<glyph name="foursuperior" format="2">
  <advance width="288"/>
  <unicode hex="2074"/>
  <outline>
    <contour>
      <point x="196" y="332" type="line"/>
      <point x="224" y="332" type="line"/>
      <point x="224" y="700" type="line"/>
      <point x="190" y="700" type="line"/>
      <point x="20" y="452" type="line"/>
      <point x="20" y="400" type="line"/>
      <point x="268" y="400" type="line"/>
      <point x="268" y="450" type="line"/>
      <point x="44" y="450" type="line"/>
      <point x="48" y="442" type="line"/>
      <point x="188" y="648" type="line"/>
      <point x="196" y="648" type="line"/>
    </contour>
  </outline>
</glyph>
<glyph name="euro" format="2">
  <advance width="708"/>
  <unicode hex="20AC"/>
  <outline>
    <contour>
      <point x="2" y="271" type="line"/>
      <point x="460" y="271" type="line"/>
      <point x="462" y="321" type="line"/>
      <point x="4" y="321" type="line"/>
    </contour>
    <contour>
      <point x="4" y="367" type="line"/>
      <point x="466" y="367" type="line"/>
      <point x="468" y="417" type="line"/>
      <point x="6" y="417" type="line"/>
    </contour>
    <component base="C" xOffset="16"/>
  </outline>
</glyph>
<glyph name="trademark" format="2">
  <advance width="796"/>
  <unicode hex="2122"/>
  <outline>
    <contour>
      <point x="364" y="328" type="line"/>
      <point x="398" y="328" type="line"/>
      <point x="398" y="636" type="line"/>
      <point x="406" y="636" type="line"/>
      <point x="540" y="328" type="line"/>
      <point x="576" y="328" type="line"/>
      <point x="706" y="636" type="line"/>
      <point x="714" y="636" type="line"/>
      <point x="714" y="328" type="line"/>
      <point x="748" y="328" type="line"/>
      <point x="748" y="700" type="line"/>
      <point x="692" y="700" type="line"/>
      <point x="564" y="392" type="line"/>
      <point x="556" y="392" type="line"/>
      <point x="424" y="700" type="line"/>
      <point x="364" y="700" type="line"/>
    </contour>
    <contour>
      <point x="149" y="328" type="line"/>
      <point x="183" y="328" type="line"/>
      <point x="183" y="648" type="line"/>
      <point x="320" y="648" type="line"/>
      <point x="320" y="700" type="line"/>
      <point x="12" y="700" type="line"/>
      <point x="12" y="648" type="line"/>
      <point x="149" y="648" type="line"/>
    </contour>
  </outline>
</glyph>
<glyph name="minus" format="2">
  <advance width="564"/>
  <unicode hex="2212"/>
  <outline>
    <contour>
      <point x="60" y="252" type="line"/>
      <point x="504" y="252" type="line"/>
      <point x="504" y="308" type="line"/>
      <point x="60" y="308" type="line"/>
    </contour>
  </outline>
</glyph>
<glyph name="approxequal" format="2">
  <advance width="564"/>
  <unicode hex="2248"/>
  <outline>
    <contour>
      <point x="372" y="292" type="curve" smooth="yes"/>
      <point x="441" y="292"/>
      <point x="488" y="344"/>
      <point x="488" y="422" type="curve"/>
      <point x="452" y="422" type="line"/>
      <point x="452" y="378"/>
      <point x="422" y="352"/>
      <point x="378" y="352" type="curve" smooth="yes"/>
      <point x="298" y="352"/>
      <point x="280" y="438"/>
      <point x="192" y="438" type="curve" smooth="yes"/>
      <point x="123" y="438"/>
      <point x="76" y="386"/>
      <point x="76" y="308" type="curve"/>
      <point x="112" y="308" type="line"/>
      <point x="112" y="352"/>
      <point x="142" y="378"/>
      <point x="186" y="378" type="curve" smooth="yes"/>
      <point x="266" y="378"/>
      <point x="284" y="292"/>
    </contour>
    <contour>
      <point x="372" y="114" type="curve" smooth="yes"/>
      <point x="441" y="114"/>
      <point x="488" y="166"/>
      <point x="488" y="244" type="curve"/>
      <point x="452" y="244" type="line"/>
      <point x="452" y="200"/>
      <point x="422" y="174"/>
      <point x="378" y="174" type="curve" smooth="yes"/>
      <point x="298" y="174"/>
      <point x="280" y="260"/>
      <point x="192" y="260" type="curve" smooth="yes"/>
      <point x="123" y="260"/>
      <point x="76" y="208"/>
      <point x="76" y="130" type="curve"/>
      <point x="112" y="130" type="line"/>
      <point x="112" y="174"/>
      <point x="142" y="200"/>
      <point x="186" y="200" type="curve" smooth="yes"/>
      <point x="266" y="200"/>
      <point x="284" y="114"/>
    </contour>
  </outline>
</glyph>
<glyph name="notequal" format="2">
  <advance width="564"/>
  <unicode hex="2260"/>
  <outline>
    <contour>
      <point x="80" y="32" type="line"/>
      <point x="124" y="32" type="line"/>
      <point x="488" y="516" type="line"/>
      <point x="442" y="516" type="line"/>
    </contour>
    <component base="equal"/>
  </outline>
</glyph>
<glyph name="lessequal" format="2">
  <advance width="564"/>
  <unicode hex="2264"/>
  <outline>
    <contour>
      <point x="484" y="148" type="line"/>
      <point x="484" y="206" type="line"/>
      <point x="114" y="331" type="line"/>
      <point x="114" y="343" type="line"/>
      <point x="484" y="460" type="line"/>
      <point x="484" y="532" type="line"/>
      <point x="72" y="366" type="line"/>
      <point x="72" y="310" type="line"/>
    </contour>
    <contour>
      <point x="74" y="60" type="line"/>
      <point x="484" y="60" type="line"/>
      <point x="484" y="114" type="line"/>
      <point x="74" y="114" type="line"/>
    </contour>
  </outline>
</glyph>
<glyph name="caroncomb.alt" format="2">
  <advance width="400"/>
  <anchor x="200" y="520" name="_topright"/>
  <outline>
    <contour>
      <point x="266" y="556" type="line"/>
      <point x="292" y="752" type="line"/>
      <point x="252" y="755" type="line"/>
      <point x="240" y="558" type="line"/>
    </contour>
  </outline>
</glyph>
<glyph name="daggerdblsuperior" format="2">
  <advance width="328"/>
  <outline>
    <contour>
      <point x="146" y="332" type="line"/>
      <point x="182" y="332" type="line"/>
      <point x="178" y="432" type="line"/>
      <point x="284" y="432" type="line"/>
      <point x="284" y="480" type="line"/>
      <point x="180" y="480" type="line"/>
      <point x="180" y="542" type="line"/>
      <point x="288" y="542" type="line"/>
      <point x="288" y="592" type="line"/>
      <point x="178" y="592" type="line"/>
      <point x="182" y="700" type="line"/>
      <point x="146" y="700" type="line"/>
      <point x="150" y="592" type="line"/>
      <point x="40" y="592" type="line"/>
      <point x="40" y="542" type="line"/>
      <point x="148" y="542" type="line"/>
      <point x="148" y="480" type="line"/>
      <point x="44" y="480" type="line"/>
      <point x="44" y="432" type="line"/>
      <point x="150" y="432" type="line"/>
    </contour>
  </outline>
</glyph>
<glyph name="daggersuperior" format="2">
  <advance width="320"/>
  <outline>
    <contour>
      <point x="144" y="332" type="line"/>
      <point x="176" y="332" type="line"/>
      <point x="174" y="532" type="line"/>
      <point x="284" y="532" type="line"/>
      <point x="284" y="580" type="line"/>
      <point x="174" y="580" type="line"/>
      <point x="177" y="700" type="line"/>
      <point x="143" y="700" type="line"/>
      <point x="146" y="580" type="line"/>
      <point x="36" y="580" type="line"/>
      <point x="36" y="532" type="line"/>
      <point x="146" y="532" type="line"/>
    </contour>
  </outline>
</glyph>
<glyph name="t_t_t.liga" format="2">
  <advance width="928"/>
  <outline>
    <contour>
      <point x="604" y="0" type="curve"/>
      <point x="604" y="58" type="line"/>
      <point x="496" y="34"/>
      <point x="432" y="64"/>
      <point x="432" y="152" type="curve" smooth="yes"/>
      <point x="432" y="464" type="line"/>
      <point x="596" y="464" type="line"/>
      <point x="596" y="520" type="line"/>
      <point x="424" y="520" type="line"/>
      <point x="440" y="664" type="line"/>
      <point x="396" y="664" type="line"/>
      <point x="396" y="520" type="line"/>
      <point x="288" y="520" type="line"/>
      <point x="288" y="464" type="line"/>
      <point x="396" y="464" type="line"/>
      <point x="396" y="128" type="line" smooth="yes"/>
      <point x="396" y="20"/>
      <point x="476" y="-28"/>
    </contour>
    <contour>
      <point x="908" y="0" type="curve"/>
      <point x="908" y="58" type="line"/>
      <point x="800" y="34"/>
      <point x="736" y="64"/>
      <point x="736" y="152" type="curve" smooth="yes"/>
      <point x="736" y="464" type="line"/>
      <point x="900" y="464" type="line"/>
      <point x="900" y="520" type="line"/>
      <point x="728" y="520" type="line"/>
      <point x="744" y="664" type="line"/>
      <point x="700" y="664" type="line"/>
      <point x="700" y="520" type="line"/>
      <point x="596" y="520" type="line"/>
      <point x="596" y="464" type="line"/>
      <point x="700" y="464" type="line"/>
      <point x="700" y="128" type="line" smooth="yes"/>
      <point x="700" y="20"/>
      <point x="780" y="-28"/>
    </contour>
    <component base="t"/>
  </outline>
</glyph>
